<svg viewBox="0 0 1112.2000732421875 400" xmlns="http://www.w3.org/2000/svg"><g><g><g><g><g><line x1="50" y1="358.8251061980932" x2="45" y2="358.8251061980932" style="visibility: inherit;" fill="rgb(0, 0, 0)" stroke="rgb(204, 204, 204)" stroke-width="1px"></line><line x1="50" y1="304.7467615024565" x2="45" y2="304.7467615024565" style="visibility: inherit;" fill="rgb(0, 0, 0)" stroke="rgb(204, 204, 204)" stroke-width="1px"></line><line x1="50" y1="250.6684168068198" x2="45" y2="250.6684168068198" style="visibility: inherit;" fill="rgb(0, 0, 0)" stroke="rgb(204, 204, 204)" stroke-width="1px"></line><line x1="50" y1="196.59007211118305" x2="45" y2="196.59007211118305" style="visibility: inherit;" fill="rgb(0, 0, 0)" stroke="rgb(204, 204, 204)" stroke-width="1px"></line><line x1="50" y1="142.5117274155464" x2="45" y2="142.5117274155464" style="visibility: inherit;" fill="rgb(0, 0, 0)" stroke="rgb(204, 204, 204)" stroke-width="1px"></line><line x1="50" y1="88.43338271990966" x2="45" y2="88.43338271990966" style="visibility: inherit;" fill="rgb(0, 0, 0)" stroke="rgb(204, 204, 204)" stroke-width="1px"></line><line x1="50" y1="34.35503802427295" x2="45" y2="34.35503802427295" style="visibility: inherit;" fill="rgb(0, 0, 0)" stroke="rgb(204, 204, 204)" stroke-width="1px"></line></g><g transform="translate(40, 0)"><text x="0" y="358.8251061980932" dx="0em" dy="0.3em" style="text-anchor: end; visibility: inherit; font-family: Roboto, sans-serif; font-size: 12px; font-weight: 200;" fill="rgb(50, 49, 63)" stroke="none" stroke-width="1px">-1</text><text x="0" y="304.7467615024565" dx="0em" dy="0.3em" style="text-anchor: end; visibility: inherit; font-family: Roboto, sans-serif; font-size: 12px; font-weight: 200;" fill="rgb(50, 49, 63)" stroke="none" stroke-width="1px">-0.5</text><text x="0" y="250.6684168068198" dx="0em" dy="0.3em" style="text-anchor: end; visibility: inherit; font-family: Roboto, sans-serif; font-size: 12px; font-weight: 200;" fill="rgb(50, 49, 63)" stroke="none" stroke-width="1px">0</text><text x="0" y="196.59007211118305" dx="0em" dy="0.3em" style="text-anchor: end; visibility: inherit; font-family: Roboto, sans-serif; font-size: 12px; font-weight: 200;" fill="rgb(50, 49, 63)" stroke="none" stroke-width="1px">0.5</text><text x="0" y="142.5117274155464" dx="0em" dy="0.3em" style="text-anchor: end; visibility: inherit; font-family: Roboto, sans-serif; font-size: 12px; font-weight: 200;" fill="rgb(50, 49, 63)" stroke="none" stroke-width="1px">1</text><text x="0" y="88.43338271990966" dx="0em" dy="0.3em" style="text-anchor: end; visibility: inherit; font-family: Roboto, sans-serif; font-size: 12px; font-weight: 200;" fill="rgb(50, 49, 63)" stroke="none" stroke-width="1px">1.5</text><text x="0" y="34.35503802427295" dx="0em" dy="0.3em" style="text-anchor: end; visibility: inherit; font-family: Roboto, sans-serif; font-size: 12px; font-weight: 200;" fill="rgb(50, 49, 63)" stroke="none" stroke-width="1px">2</text></g><line x1="50" y1="0" x2="50" y2="374" fill="rgb(0, 0, 0)" stroke="rgb(204, 204, 204)" stroke-width="1px"></line></g></g><g transform="translate(50, 0)" clip-path="url(#clip_0)"><clipPath id="clip_0"><rect width="1062" height="374"></rect></clipPath><g><g><g><line x1="29.938008301987125" y1="0" x2="29.938008301987125" y2="374" fill="rgb(0, 0, 0)" stroke="rgb(60, 60, 60)" stroke-width="1px" opacity="0.25"></line><line x1="130.45668150792088" y1="0" x2="130.45668150792088" y2="374" fill="rgb(0, 0, 0)" stroke="rgb(60, 60, 60)" stroke-width="1px" opacity="0.25"></line><line x1="230.9753547138546" y1="0" x2="230.9753547138546" y2="374" fill="rgb(0, 0, 0)" stroke="rgb(60, 60, 60)" stroke-width="1px" opacity="0.25"></line><line x1="331.4940279197883" y1="0" x2="331.4940279197883" y2="374" fill="rgb(0, 0, 0)" stroke="rgb(60, 60, 60)" stroke-width="1px" opacity="0.25"></line><line x1="432.0127011257222" y1="0" x2="432.0127011257222" y2="374" fill="rgb(0, 0, 0)" stroke="rgb(60, 60, 60)" stroke-width="1px" opacity="0.25"></line><line x1="532.5313743316559" y1="0" x2="532.5313743316559" y2="374" fill="rgb(0, 0, 0)" stroke="rgb(60, 60, 60)" stroke-width="1px" opacity="0.25"></line><line x1="633.0500475375895" y1="0" x2="633.0500475375895" y2="374" fill="rgb(0, 0, 0)" stroke="rgb(60, 60, 60)" stroke-width="1px" opacity="0.25"></line><line x1="733.5687207435234" y1="0" x2="733.5687207435234" y2="374" fill="rgb(0, 0, 0)" stroke="rgb(60, 60, 60)" stroke-width="1px" opacity="0.25"></line><line x1="834.0873939494571" y1="0" x2="834.0873939494571" y2="374" fill="rgb(0, 0, 0)" stroke="rgb(60, 60, 60)" stroke-width="1px" opacity="0.25"></line><line x1="934.6060671553907" y1="0" x2="934.6060671553907" y2="374" fill="rgb(0, 0, 0)" stroke="rgb(60, 60, 60)" stroke-width="1px" opacity="0.25"></line><line x1="1035.1247403613245" y1="0" x2="1035.1247403613245" y2="374" fill="rgb(0, 0, 0)" stroke="rgb(60, 60, 60)" stroke-width="1px" opacity="0.25"></line></g><g><line x1="0" y1="358.8251061980932" x2="1062.2" y2="358.8251061980932" fill="rgb(0, 0, 0)" stroke="rgb(60, 60, 60)" stroke-width="1px" opacity="0.25"></line><line x1="0" y1="304.7467615024565" x2="1062.2" y2="304.7467615024565" fill="rgb(0, 0, 0)" stroke="rgb(60, 60, 60)" stroke-width="1px" opacity="0.25"></line><line x1="0" y1="250.6684168068198" x2="1062.2" y2="250.6684168068198" fill="rgb(0, 0, 0)" stroke="rgb(60, 60, 60)" stroke-width="1px" opacity="0.25"></line><line x1="0" y1="196.59007211118305" x2="1062.2" y2="196.59007211118305" fill="rgb(0, 0, 0)" stroke="rgb(60, 60, 60)" stroke-width="1px" opacity="0.25"></line><line x1="0" y1="142.5117274155464" x2="1062.2" y2="142.5117274155464" fill="rgb(0, 0, 0)" stroke="rgb(60, 60, 60)" stroke-width="1px" opacity="0.25"></line><line x1="0" y1="88.43338271990966" x2="1062.2" y2="88.43338271990966" fill="rgb(0, 0, 0)" stroke="rgb(60, 60, 60)" stroke-width="1px" opacity="0.25"></line><line x1="0" y1="34.35503802427295" x2="1062.2" y2="34.35503802427295" fill="rgb(0, 0, 0)" stroke="rgb(60, 60, 60)" stroke-width="1px" opacity="0.25"></line></g></g></g><g><g><line x1="0" y1="250.6684168068198" x2="1062.2" y2="250.6684168068198" fill="rgb(0, 0, 0)" stroke="rgb(153, 153, 153)" stroke-width="1.5px"></line></g></g><g><g><line x1="29.938008301987125" y1="0" x2="29.938008301987125" y2="374" fill="rgb(0, 0, 0)" stroke="rgb(153, 153, 153)" stroke-width="1.5px"></line></g></g><g><g><g><g><g><path stroke="rgb(0, 153, 136)" stroke-width="2px" d="M31.9483817661058,314.47740531154557L33.958755230224476,315.34683513838957L35.96912869434315,315.20548842346045L37.97950215846183,315.9848661041076L39.9898756225805,316.42207089878946L42.00024908669917,317.11399577555113L44.01062255081785,317.5327855580779L46.02099601493652,316.6413705993553L48.0313694790552,313.86017060093883L50.04174294317387,312.6538749539001L52.052116407292544,308.2168064977502L54.06248987141122,297.9321736214716L56.072863335529895,292.9306491037323L58.083236799648574,287.7126548789225L60.093610263767246,280.1232611010527L62.10398372788592,275.31907004773177L64.11435719200459,270.2262326856325L66.12473065612328,264.54235775208633L68.13510412024195,258.6358009716046L70.14547758436062,250.16447581997014L72.1558510484793,253.17220163920823L74.16622451259798,250.86581711952925L76.17659797671665,249.47333402345944L78.18697144083532,250.01958857899865L80.197344904954,246.93755934965097L82.20771836907268,245.13028797479308L84.21809183319135,243.04069104978302L86.22846529731002,237.49666165741723L88.2388387614287,234.39894076946544L90.24921222554737,233.71807351801084L92.25958568966605,235.46189498104704L94.26995915378473,229.0940437341135L96.2803326179034,222.27368316638118L98.29070608202207,227.49722362499878L100.30107954614074,224.73345940122215L102.31145301025941,226.16104679192205L104.3218264743781,223.82127691689962L106.33219993849677,228.9983676874178L108.34257340261544,232.58099361416956L110.35294686673411,238.36927195920825L112.36332033085279,243.89380686658714L114.37369379497147,244.9716878324454L116.38406725909014,240.70229423299256L118.39444072320882,231.6635770141172L120.40481418732749,227.1998192533034L122.41518765144616,229.78478846674648L124.42556111556485,224.3232750851284L126.43593457968352,222.37866792813867L128.4463080438022,225.55974989954743L130.45668150792088,231.1545335783357L132.46705497203953,230.83130801425045L134.47742843615822,229.90440337706343L136.48780190027688,220.83321332118692L138.49817536439556,224.7940591092214L140.50854882851425,225.04519335848457L142.51892229263294,228.67743698985944L144.5292957567516,227.43965137531998L146.53966922087028,223.1508680049333L148.55004268498894,211.4014663887845L150.56041614910762,206.84406494584843L152.57078961322628,209.6931812290268L154.58116307734497,197.84834049601525L156.59153654146363,197.95036058645894L158.6019100055823,203.30717960620984L160.61228346970097,207.14572354185006L162.62265693381968,208.99068744955562L164.63303039793834,213.49342204396157L166.64340386205703,214.95107387001244L168.65377732617569,218.58563744776154L170.66415079029437,223.4875132633572L172.67452425441303,226.87023295001563L174.68489771853172,232.93940814581663L176.69527118265037,232.80428193962263L178.70564464676906,233.97212492002947L180.71601811088772,241.28338745437784L182.72639157500643,252.56844576854982L184.7367650391251,267.5301658915739L186.74713850324378,276.5652550596947L188.75751196736243,286.2135385239181L190.76788543148112,287.6273501590671L192.77825889559978,288.4403112249389L194.78863235971846,292.6357943972464L196.79900582383712,293.76446027626804L198.8093792879558,290.10038645187177L200.81975275207446,290.91446374133807L202.83012621619315,291.4838074583327L204.84049968031184,291.25342106367475L206.85087314443052,294.83323153286597L208.86124660854918,297.4231298922762L210.87162007266787,291.45750414314045L212.88199353678652,288.1238351682953L214.8923670009052,284.02884618714285L216.90274046502387,286.65314935620677L218.91311392914255,288.06308366039883L220.9234873932612,286.1247874976898L222.9338608573799,284.07620911192174L224.94423432149858,283.5973520939089L226.95460778561727,284.2864208910879L228.96498124973593,282.6286389616916L230.9753547138546,282.16151730222697L232.98572817797327,276.50294377982084L234.99610164209196,274.06847781602016L237.00647510621062,267.31210599945695L239.0168485703293,264.15481317479174L241.02722203444796,262.9906982508317L243.03759549856665,260.35854066331467L245.0479689626853,252.65250565259723L247.05834242680402,256.81042190390104L249.0687158909227,258.9214947323041L251.07908935504136,250.18327436260552L253.08946281916005,245.13125653818068L255.0998362832787,243.5424415706272L257.1102097473974,238.5458170686003L259.1205832115161,231.26982674135576L261.13095667563476,226.89728399571104L263.1413301397534,222.16264479812313L265.1517036038721,225.9062666523742L267.16207706799077,222.43445243457913L269.1724505321094,225.6166320638919L271.18282399622814,222.8567287778923L273.19319746034677,218.9921231898417L275.20357092446545,221.9016884317363L277.2139443885841,219.3936223410715L279.2243178527028,218.50874189602789L281.2346913168215,220.40903375911995L283.24506478094014,225.15611038105607L285.2554382450588,226.3494529529042L287.2658117091775,216.80833846622173L289.2761851732962,216.3304893286629L291.2865586374148,216.35174267253188L293.2969321015335,215.6253180569327L295.3073055656522,212.7373787310769L297.3176790297709,204.6390917531412L299.3280524938896,204.42205561398723L301.3384259580082,207.83617391292364L303.34879942212694,209.50916797251233L305.3591728862456,212.39630523333156L307.36954635036426,215.76895784776823L309.3799198144829,212.46053850168695L311.39029327860163,206.7081936521444L313.40066674272026,205.08832118366362L315.41104020683895,204.5430958794507L317.4214136709576,197.22940301554522L319.4317871350763,196.98465149644437L321.442160599195,201.25947787667374L323.45253406331364,202.78888856847087L325.4629075274323,198.0684625765921L327.473280991551,198.052927138377L329.4836544556697,193.50235358657275L331.4940279197883,189.90917183194284L333.504401383907,187.24407006002474L335.5147748480257,167.3344566526569L337.5251483121444,159.14077798803845L339.535521776263,164.60286005260724L341.5458952403817,168.71859509191003L343.55626870450044,195.19717748558767L345.56664216861907,180.64163308138097L347.57701563273775,182.38086404132846L349.5873890968564,185.13032915701962L351.5977625609751,186.04932886719848L353.60813602509376,188.47561667321816L355.61850948921244,181.19657965886017L357.6288829533311,180.92998330702594L359.6392564174498,181.2046163855377L361.64962988156844,183.9658994788482L363.66000334568713,183.37412730766835L365.6703768098058,184.34647197272392L367.6807502739245,190.6174370682425L369.6911237380432,193.16000700444698L371.7014972021618,185.7848950829524L373.7118706662805,190.82555350388856L375.7222441303992,184.31517384170138L377.7326175945179,188.3341105486231L379.7429910586365,190.34628897344083L381.7533645227552,185.51971044504077L383.76373798687393,180.1522892189685L385.77411145099256,186.03542400600654L387.78448491511125,189.82290384468368L389.7948583792299,186.29179880112932L391.8052318433486,183.39907547317534L393.81560530746725,179.53331924259754L395.82597877158594,182.83151579392674L397.8363522357046,177.3984955083477L399.8467256998233,176.2119055484671L401.85709916394194,179.34300537940192L403.8674726280606,187.49500678091778L405.87784609217937,187.11602081928075L407.888219556298,188.48122920067541L409.8985930204167,191.1239735999787L411.9089664845353,196.17590409113973L413.91933994865406,198.90779336991997L415.9297134127727,196.31797155083405L417.94008687689137,202.5171004125331L419.95046034101,203.89624914546312L421.96083380512874,207.77884079850114L423.9712072692475,191.20219469726868L425.9815807333661,200.69747608420278L427.9919541974848,196.7965354270176L430.00232766160343,203.64869857236954L432.0127011257222,201.13552081936717L434.0230745898408,207.98597892887426L436.0334480539595,204.4405573553471L438.0438215180781,204.17809826667792L440.05419498219686,212.04034013204185L442.0645684463155,214.1033142865626L444.0749419104342,206.29525599615863L446.0853153745528,197.1674393088205L448.09568883867155,199.49034982715855L450.10606230279024,190.33211907426258L452.11643576690886,194.98321497320958L454.12680923102755,192.81971055700535L456.13718269514624,193.72376268257L458.1475561592649,179.266237428401L460.15792962338355,176.26490735101567L462.16830308750224,179.7203717118072L464.1786765516209,178.433180151131L466.1890500157396,172.06752921118908L468.1994234798583,176.30536614284222L470.2097969439769,170.1967834367297L472.22017040809567,168.97326617569942L474.2305438722143,169.79417404243446L476.240917336333,168.23800312066297L478.2512908004516,167.33398539128714L480.26166426457036,172.29644430270514L482.272037728689,174.66326589252773L484.2824111928077,172.36023704558787L486.2927846569263,164.940982092642L488.30315812104504,173.03706692817408L490.31353158516373,157.29222835814605L492.32390504928236,147.57930827352433L494.33427851340105,148.29218839284303L496.34465197751973,150.70790279831564L498.3550254416384,156.40440887754775L500.36539890575705,158.12320668054053L502.37577236987573,165.35048890799192L504.3861458339944,155.5753643114124L506.3965192981131,152.6623394987899L508.40689276223173,153.01327750777898L510.4172662263505,154.7365205806285L512.4276396904692,161.3187895436916L514.4380131545878,167.0138981456986L516.4483866187064,164.68899637791438L518.4587600828252,169.94458596788022L520.4691335469438,170.2033265180254L522.4795070110625,163.80244354621604L524.4898804751812,168.83148355924038L526.5002539392999,161.82474223139408L528.5106274034185,160.9744625215699L530.5210008675372,159.32584109625867L532.5313743316559,161.35360935419598L534.5417477957745,170.68232691512776L536.5521212598932,169.71763032548296L538.5624947240119,167.35660326465407L540.5728681881307,169.08687561836197L542.5832416522492,164.53211640756763L544.5936151163679,164.88530900771204L546.6039885804867,165.06485221046964L548.6143620446053,167.33693685804855L550.6247355087239,172.05042928969175L552.6351089728425,171.66995514586998L554.6454824369613,144.5409438291952L556.65585590108,154.2830380094583L558.6662293651987,149.72757546103972L560.6766028293173,161.64687577947737L562.686976293436,171.56739131014947L564.6973497575547,179.89395767442923L566.7077232216734,184.35338501203495L568.7180966857919,189.18429511352008L570.7284701499107,197.12568462929036L572.7388436140294,203.0726562440177L574.749217078148,205.0140693210257L576.7595905422668,208.73075634117765L578.7699640063854,207.32886286278352L580.780337470504,206.49212329119428L582.7907109346228,208.38836841815544L584.8010843987414,210.3481881615193L586.81145786286,211.6592471672467L588.8218313269788,212.4917031949819L590.8322047910974,206.60143213405735L592.8425782552162,191.63979737755255L594.8529517193349,202.1025134041997L596.8633251834534,210.96634421065784L598.8736986475722,196.24620171452153L600.8840721116908,203.14377147029663L602.8944455758095,203.64880541025084L604.9048190399282,205.82119390771564L606.9151925040468,211.36105478048873L608.9255659681655,210.48142666142994L610.9359394322843,212.2513306367602L612.9463128964028,206.9662295992212L614.9566863605215,204.4966390179137L616.9670598246402,197.52534191607484L618.9774332887589,194.34206583244065L620.9878067528776,188.3294238762678L622.9981802169962,176.00661014801497L625.0085536811149,169.56369160542042L627.0189271452336,158.43506110992072L629.0293006093523,158.48460843071882L631.0396740734709,151.38094123493568L633.0500475375895,150.03009998094834L635.0604210017083,145.70751047135755L637.070794465827,152.31013393333114L639.0811679299457,147.36833446841035L641.0915413940643,147.6073608899121L643.101914858183,145.7587397336619L645.1122883223017,140.72366415496626L647.1226617864204,142.4463736789356L649.1330352505389,134.674540001867L651.1434087146577,134.53839069905624L653.1537821787764,132.62238235985487L655.164155642895,136.12040543206763L657.1745291070138,142.1241827841654L659.1849025711324,140.33816891772625L661.195276035251,138.71621388002313L663.2056494993698,141.29103882577624L665.2160229634885,146.1436816747239L667.226396427607,135.33966171652867L669.2367698917258,140.62213163026405L671.2471433558444,139.91690162982815L673.2575168199631,147.52375264493222L675.2678902840818,148.56595524957177L677.2782637482004,156.11933495320656L679.2886372123191,164.6115824543038L681.2990106764379,167.01980597371707L683.3093841405565,166.82714437528068L685.3197576046751,166.93226676640757L687.3301310687938,178.03101435179607L689.3405045329125,168.61914858597285L691.3508779970313,170.62647120457189L693.3612514611498,171.55102893323195L695.3716249252685,164.21215326777727L697.3819983893873,167.77571707122942L699.3923718535059,168.57937536041294L701.4027453176246,170.45011764242673L703.4131187817432,172.03476613815675L705.4234922458619,168.08647929495456L707.4338657099806,167.26359680608132L709.4442391740993,159.6231040836986L711.4546126382179,159.47122264864893L713.4649861023366,161.17022314691775L715.4753595664553,163.64724660658337L717.485733030574,156.95654857601542L719.4961064946925,150.0210844864938L721.5064799588113,152.63111152454067L723.51685342293,150.403402227327L725.5272268870486,159.49808235225973L727.5376003511674,160.0991870468973L729.547973815286,156.94193857988378L731.5583472794046,150.4253647140921L733.5687207435234,143.15958278505934L735.579094207642,143.5401047629933L737.5894676717606,144.51228218669556L739.5998411358794,137.90454842348913L741.610214599998,137.84324794542246L743.6205880641168,139.17425548474856L745.6309615282355,137.94556065865794L747.641334992354,142.6392487272477L749.6517084564728,141.06505757054015L751.6620819205914,136.79431357612475L753.6724553847101,140.26468177690862L755.6828288488288,128.74662639544638L757.6932023129474,131.41462313996965L759.7035757770661,132.81571769466515L761.7139492411849,141.4826845237251L763.7243227053035,136.1879017824239L765.7346961694221,128.84782452397496L767.7450696335408,132.34776054470078L769.7554430976595,135.6225186573162L771.7658165617783,167.05441468195917L773.7761900258968,161.4517751226579L775.7865634900155,158.77651642510705L777.7969369541343,162.5393323543561L779.8073104182529,156.51083477546084L781.8176838823715,158.43243650979701L783.8280573464901,152.10087175974692L785.8384308106089,157.47228571411839L787.8488042747276,153.89602070084254L789.8591777388463,153.57563895381656L791.8695512029649,158.11284826006278L793.8799246670836,158.2000871691262L795.8902981312023,158.60179521485438L797.900671595321,159.01340817951336L799.9110450594396,152.49868654559245L801.9214185235583,149.0297019162196L803.931791987677,148.1690750626395L805.9421654517956,157.186188949647L807.9525389159144,153.3177121363799L809.962912380033,150.47642550518347L811.9732858441516,150.8729257623126L813.9836593082704,144.48706203298408L815.9940327723891,132.18335233191476L818.0044062365076,138.15836589240612L820.0147797006264,138.0118768573424L822.025153164745,138.90722859533406L824.0355266288637,143.4841660749298L826.0459000929825,143.5986645593113L828.056273557101,147.85472513152823L830.0666470212198,140.2754358689104L832.0770204853385,144.03663384779136L834.0873939494571,147.5829545743794L836.0977674135758,145.48019122245293L838.1081408776944,145.58806577742774L840.1185143418131,145.80862574659722L842.1288878059319,140.5729586827112L844.1392612700504,141.5989195787262L846.1496347341691,136.46530759764968L848.1600081982879,130.4324453188814L850.1703816624065,130.94368289812556L852.1807551265252,130.64702363205117L854.1911285906438,123.70666451736513L856.2015020547625,118.52035561675214L858.2118755188812,122.48406845526762L860.2222489829999,127.57361712270125L862.2326224471185,120.84206652526778L864.2429959112372,127.01170552923091L866.2533693753559,124.22849496849837L868.2637428394746,129.81738028691674L870.2741163035932,124.45688388705881L872.2844897677119,128.21045358213817L874.2948632318306,129.27198461329522L876.3052366959492,126.81063233663944L878.315610160068,128.674498941279L880.3259836241866,129.4333827343897L882.3363570883052,128.27778728489167L884.346730552424,126.75810287165709L886.3571040165426,121.34910156809455L888.3674774806613,129.06193229409183L890.37785094478,130.15733528360764L892.3882244088986,130.24885648692333L894.3985978730174,127.79891229390182L896.4089713371361,130.82037446872872L898.4193448012546,130.69423858895928L900.4297182653734,133.37029400967725L902.440091729492,136.02759165414926L904.4504651936107,127.91099744220486L906.4608386577294,121.81479132424715L908.471212121848,111.56181515920261L910.4815855859667,114.91500994631046L912.4919590500855,120.1702706574779L914.5023325142041,111.81321460999143L916.5127059783227,119.57353697564774L918.5230794424414,113.02575788567098L920.5334529065601,115.2521183375259L922.5438263706789,110.24158525585705L924.5541998347974,108.34664364335838L926.5645732989161,109.2175179440817L928.5749467630349,114.83570951734853L930.5853202271535,122.67727371410865L932.5956936912722,126.06188836270884L934.6060671553907,120.49497848831972L936.6164406195095,113.02052880562887L938.6268140836282,121.9477034856186L940.6371875477469,126.2589423298027L942.6475610118655,128.85960314794934L944.6579344759842,134.53451969767286L946.6683079401029,133.79182384105718L948.6786814042216,127.59362014050869L950.6890548683402,128.79146013656614L952.6994283324589,133.45269306787526L954.7098017965776,135.11719676804492L956.7201752606962,132.06215445963744L958.730548724815,132.97603153174768L960.7409221889336,135.81676037226723L962.7512956530522,128.26244999537042L964.761669117171,116.07275864365354L966.7720425812897,121.3206167460478L968.7824160454082,124.6244885125437L970.792789509527,125.67703712304272L972.8031629736456,129.66226865678416L974.8135364377644,128.74795463419366L976.8239099018831,129.40068234548636L978.8342833660016,122.30147011509725L980.8446568301204,127.77691674099376L982.8550302942391,123.06070508515606L984.8654037583577,127.88640097410406L986.8757772224764,130.35430142291497L988.886150686595,140.14928314560936L990.8965241507137,133.51498459007402L992.9068976148325,135.14006755427113L994.917271078951,131.84728123910767L996.9276445430697,132.93739534047882L998.9380180071885,126.62567474477272L1000.9483914713071,125.96020242497592L1002.9587649354258,122.01664376596769L1004.9691383995444,119.07291401856386L1006.9795118636631,128.83660456367224L1008.9898853277818,120.38658313462167L1011.0002587919005,121.79211104731479L1013.0106322560191,119.8697966648641L1015.0210057201379,124.56112940354011L1017.0313791842565,125.2562894315904L1019.0417526483752,124.35990412952238L1021.0521261124939,125.64441862518308L1023.0624995766125,129.26514774741742L1025.0728730407313,126.77865167727806L1027.0832465048497,128.25059709248458L1029.0936199689686,124.67421980750922L1031.1039934330872,123.60216401750738L1033.1143668972059,120.43564715703175L1035.1247403613245,125.03511078863582" style="fill: none;" fill="none"></path></g></g></g></g><g opacity="0.2"><g><g><g><path style="fill: none;" stroke="rgb(0, 153, 136)" stroke-width="2px" d="M31.9483817661058,314.47740531154557L33.958755230224476,316.0423789998647L35.96912869434315,315.0019491539626L37.97950215846183,317.5062113367308L39.9898756225805,317.4545737419103L42.00024908669917,318.9747755081285L44.01062255081785,318.7688117731821L46.02099601493652,313.82348382987107L48.0313694790552,304.6018023317781L50.04174294317387,308.4763174099125L52.052116407292544,292.37423906407815L54.06248987141122,260.32741506475566L56.072863335529895,274.2993596237406L58.083236799648574,267.9881270444524L60.093610263767246,251.10082626262002L62.10398372788592,256.77843561687115L64.11435719200459,250.42828574839086L66.12473065612328,242.3188159585564L68.13510412024195,235.43518612032784L70.14547758436062,216.76751386042395L72.1558510484793,265.0643980450821L74.16622451259798,241.72536961075352L76.17659797671665,243.94450048606063L78.18697144083532,252.19170873013442L80.197344904954,234.66766031838796L82.20771836907268,237.9285131882129L84.21809183319135,234.7075650264952L86.22846529731002,215.37416265017117L88.2388387614287,222.03202467214393L90.24921222554737,230.9988188763526L92.25958568966605,242.42854584754994L94.26995915378473,203.6478644040522L96.2803326179034,195.01385548087057L98.29070608202207,248.37814221107388L100.30107954614074,213.6840080859189L102.31145301025941,231.86907996174546L104.3218264743781,214.46523461175292L106.33219993849677,249.70135457106167L108.34257340261544,246.90852099200129L110.35294686673411,261.5185383685513L112.36332033085279,265.98900914951776L114.37369379497147,249.28275321602064L116.38406725909014,223.62617263454052L118.39444072320882,195.51116871148704L120.40481418732749,209.34576033040395L122.41518765144616,240.1242149553644L124.42556111556485,202.47798278252043L126.43593457968352,214.60045613112342L128.4463080438022,238.28379402318828L130.45668150792088,253.53326903638418L132.46705497203953,229.53842421082715L134.47742843615822,226.1968271618353L136.48780190027688,184.54878453665899L138.49817536439556,240.6373264857071L140.50854882851425,226.04972448300737L142.51892229263294,243.20634356617487L144.5292957567516,222.48852744158557L146.53966922087028,205.99578587136605L148.55004268498894,164.40397246109902L150.56041614910762,188.61449409509135L152.57078961322628,221.08962889670815L154.58116307734497,150.46903565089892L156.59153654146363,198.35844054798966L158.6019100055823,224.73443887256468L160.61228346970097,222.49988964643833L162.62265693381968,216.37053937444963L164.63303039793834,231.50435318596973L166.64340386205703,220.78167930033104L168.65377732617569,233.12388802082612L170.66415079029437,243.09501249271023L172.67452425441303,240.40110947013738L174.68489771853172,257.21610573322675L176.69527118265037,232.26377717176845L178.70564464676906,238.6434964480947L180.71601811088772,270.52843562065874L182.72639157500643,297.70867659128106L184.7367650391251,327.3770438021203L186.74713850324378,312.7056104850203L188.75751196736243,324.8066713153715L190.76788543148112,293.2825965747634L192.77825889559978,291.6921554309713L194.78863235971846,309.41772684926747L196.79900582383712,298.27912374130347L198.8093792879558,275.4440912868712L200.81975275207446,294.1707728756377L202.83012621619315,293.761182313126L204.84049968031184,290.3318754893114L206.85087314443052,309.1524733565728L208.86124660854918,307.7827232992086L210.87162007266787,267.59500120318575L212.88199353678652,274.78915929421186L214.8923670009052,267.6488902873934L216.90274046502387,297.1503620197171L218.91311392914255,293.7028208716891L220.9234873932612,278.37160285287837L222.9338608573799,275.8818955739436L224.94423432149858,281.68192402281005L226.95460778561727,287.0426960787073L228.96498124973593,275.997511246217L230.9753547138546,280.2930306648442L232.98572817797327,253.86864969480698L234.99610164209196,264.3306139624044L237.00647510621062,240.28661873672746L239.0168485703293,251.52564187744812L241.02722203444796,258.3342385553798L243.03759549856665,249.8299103139495L245.0479689626853,221.8283656113734L247.05834242680402,273.44208690840577L249.0687158909227,267.3657860456278L251.07908935504136,215.2303928847668L253.08946281916005,224.92318524092343L255.0998362832787,237.1871817005245L257.1102097473974,218.5593190607724L259.1205832115161,202.16586543270367L261.13095667563476,209.40711301328872L263.1413301397534,203.22408800790728L265.1517036038721,240.88075406929272L267.16207706799077,208.5471955634626L269.1724505321094,238.34535058109628L271.18282399622814,211.81711563392608L273.19319746034677,203.5337008376756L275.20357092446545,233.53994939929296L277.2139443885841,209.36135797842746L279.2243178527028,214.96922011585752L281.2346913168215,228.0102012114809L283.24506478094014,244.1444168687858L285.2554382450588,231.1228232402939L287.2658117091775,178.64388051951056L289.2761851732962,214.41909277842862L291.2865586374148,216.43675604800754L293.2969321015335,212.71961959453677L295.3073055656522,201.185621427656L297.3176790297709,172.24594384140363L299.3280524938896,203.55391105737127L301.3384259580082,221.49264710866802L303.34879942212694,216.20114421086646L305.3591728862456,223.94485427660769L307.36954635036426,229.2595683055143L309.3799198144829,199.22686111736235L311.39029327860163,183.69881425397494L313.40066674272026,198.6088313097407L315.41104020683895,202.3621946625989L317.4214136709576,167.97463155992378L319.4317871350763,196.00564542004105L321.442160599195,218.35878339759114L323.45253406331364,208.9065313356592L325.4629075274323,179.18675860907732L327.473280991551,197.9907853855164L329.4836544556697,175.30005937935601L331.4940279197883,175.53644481342326L333.504401383907,176.58366297235233L335.5147748480257,87.69600302318568L337.5251483121444,126.36606332956458L339.535521776263,186.45118831088263L341.5458952403817,185.1815352491212L343.55626870450044,301.1115070602982L345.56664216861907,122.41945546455408L347.57701563273775,189.33778788111832L349.5873890968564,196.12818961978422L351.5977625609751,189.72532770791418L353.60813602509376,198.1807678972967L355.61850948921244,152.08043160142807L357.6288829533311,179.86359789968898L359.6392564174498,182.30314869958477L361.64962988156844,195.01103185209013L363.66000334568713,181.00703862294907L365.6703768098058,188.2358506329462L367.6807502739245,215.70129745031682L369.6911237380432,203.330286749265L371.7014972021618,156.2844473969739L373.7118706662805,210.98818718763334L375.7222441303992,158.2736551929526L377.7326175945179,204.40985737630982L379.7429910586365,198.39500267271183L381.7533645227552,166.21339633144044L383.76373798687393,158.68260431467962L385.77411145099256,209.56796315415843L387.78448491511125,204.97282319939225L389.7948583792299,172.16737862691207L391.8052318433486,171.82818216135954L393.81560530746725,164.07029432028637L395.82597877158594,196.02430199924336L397.8363522357046,155.66641436603172L399.8467256998233,171.46554570894466L401.85709916394194,191.86740470314112L403.8674726280606,220.1030123869813L405.87784609217937,185.60007697273252L407.888219556298,193.94206272625408L409.8985930204167,201.69495119719204L411.9089664845353,216.38362605578365L413.91933994865406,209.8353504850411L415.9297134127727,185.9586842744903L417.94008687689137,227.31361585932922L419.95046034101,209.41284407718328L421.96083380512874,223.30920741065322L423.9712072692475,124.89561029233884L425.9815807333661,238.6786016319393L427.9919541974848,181.19277279827656L430.00232766160343,231.05735115377743L432.0127011257222,191.0828098073578L434.0230745898408,235.3878113669025L436.0334480539595,190.2588710612387L438.0438215180781,203.128261912001L440.05419498219686,243.4893075934976L442.0645684463155,222.35521090464573L444.0749419104342,175.06302283454266L446.0853153745528,160.65617255946796L448.09568883867155,208.78199190051066L450.10606230279024,153.69919606267885L452.11643576690886,213.5875985689975L454.12680923102755,184.1656928921885L456.13718269514624,197.3399711848286L458.1475561592649,121.43613641172492L460.15792962338355,164.2595870414742L462.16830308750224,193.54222915497357L464.1786765516209,173.2844139084262L466.1890500157396,146.60492545142122L468.1994234798583,193.25671386945476L470.2097969439769,145.7624526122798L472.22017040809567,164.07919713157813L474.2305438722143,173.0778055093747L476.240917336333,162.01331943357692L478.2512908004516,163.71791447378402L480.26166426457036,192.14627994837707L482.272037728689,184.1305522518182L484.2824111928077,163.14812165782834L486.2927846569263,135.26396228085852L488.30315812104504,205.42140627030236L490.31353158516373,94.31287407803407L492.32390504928236,108.72762793503762L494.33427851340105,151.1437088701174L496.34465197751973,160.370760420206L498.3550254416384,179.19043319447653L500.36539890575705,164.99839789251155L502.37577236987573,194.2596178177976L504.3861458339944,116.47486592509412L506.3965192981131,141.01024024829997L508.40689276223173,154.41702954373542L510.4172662263505,161.62949287202665L512.4276396904692,187.64786539594388L514.4380131545878,189.79433255372675L516.4483866187064,155.38938930677742L518.4587600828252,190.96694432774368L520.4691335469438,171.23828871860601L522.4795070110625,138.1989116589786L524.4898804751812,188.94764361133778L526.5002539392999,133.79777692000874L528.5106274034185,157.5733436822733L530.5210008675372,152.73135539501376L532.5313743316559,169.46468238594534L534.5417477957745,207.99719715885476L536.5521212598932,165.85884396690383L538.5624947240119,157.9124950213385L540.5728681881307,176.00796503319373L542.5832416522492,146.31307956439014L544.5936151163679,166.29807940828968L546.6039885804867,165.78302502150012L548.6143620446053,176.42527544836423L550.6247355087239,190.90439901626448L552.6351089728425,170.148058570583L554.6454824369613,36.02489856249591L556.65585590108,193.25141473051062L558.6662293651987,131.50572526736553L560.6766028293173,209.32407705322808L562.686976293436,211.24945343283784L564.6973497575547,213.20022313154843L566.7077232216734,202.19109436245773L568.7180966857919,208.5079355194605L570.7284701499107,228.89124269237166L572.7388436140294,226.86054270292692L574.749217078148,212.77972162905755L576.7595905422668,223.59750442178563L578.7699640063854,201.72128894920695L580.780337470504,203.14516500483737L582.7907109346228,215.97334892600009L584.8010843987414,218.18746713497472L586.81145786286,216.90348319015638L588.8218313269788,215.82152730592261L590.8322047910974,183.0403478903593L592.8425782552162,131.79325835153332L594.8529517193349,243.9533775107882L596.8633251834534,246.42166743649042L598.8736986475722,137.36563172997626L600.8840721116908,230.734050493397L602.8944455758095,205.66894117006768L604.9048190399282,214.51074789757476L606.9151925040468,233.5204982715811L608.9255659681655,206.96291418519496L610.9359394322843,219.33094653808112L612.9463128964028,185.82582544906512L614.9566863605215,194.61827669268385L616.9670598246402,169.64015350871927L618.9774332887589,181.60896149790418L620.9878067528776,164.27885605157635L622.9981802169962,126.71535523500336L625.0085536811149,143.79201743504237L627.0189271452336,113.9205391279219L629.0293006093523,158.68279771391116L631.0396740734709,122.9662724518031L633.0500475375895,144.62673496499914L635.0604210017083,128.4171524329942L637.070794465827,178.7206277812257L639.0811679299457,127.60113660872709L641.0915413940643,148.56346657591914L643.101914858183,138.36425510866107L645.1122883223017,120.58336184018358L647.1226617864204,149.3372117748132L649.1330352505389,103.58720529359259L651.1434087146577,133.993793487813L653.1537821787764,124.95834900304962L655.164155642895,150.1124977209185L657.1745291070138,166.13929219255635L659.1849025711324,133.19411345196977L661.195276035251,132.22839372921055L663.2056494993698,151.59033860878895L665.2160229634885,165.55425307051442L667.226396427607,92.12358188374778L669.2367698917258,161.7520112852056L671.2471433558444,137.09598162808462L673.2575168199631,177.95115670534858L675.2678902840818,152.73476566812985L677.2782637482004,186.33285376774586L679.2886372123191,198.58057245869253L681.2990106764379,176.6527000513702L683.3093841405565,166.05649798153513L685.3197576046751,167.35275633091507L687.3301310687938,222.42600469334997L689.3405045329125,130.97168552268008L691.3508779970313,178.65576167896802L693.3612514611498,175.2492598478722L695.3716249252685,134.8566506059585L697.3819983893873,182.02997228503807L699.3923718535059,171.79400851714686L701.4027453176246,177.9330867704819L703.4131187817432,178.37336012107698L705.4234922458619,152.2933319221456L707.4338657099806,163.97206685058848L709.4442391740993,129.06113319416767L711.4546126382179,158.86369690845027L713.4649861023366,167.96622513999296L715.4753595664553,173.555340445246L717.485733030574,130.1937564537437L719.4961064946925,122.27922812840731L721.5064799588113,163.071219676728L723.51685342293,141.4925650384723L725.5272268870486,195.87680285199076L727.5376003511674,162.50360582544758L729.547973815286,144.3129447118296L731.5583472794046,124.35906925092549L733.5687207435234,114.09645506892838L735.579094207642,145.06219267472892L737.5894676717606,148.4009918815045L739.5998411358794,111.47361337066347L741.610214599998,137.59804603315587L743.6205880641168,144.498285642053L745.6309615282355,133.03078135429533L747.641334992354,161.4140010016065L749.6517084564728,134.7682929437101L751.6620819205914,119.71133759846326L753.6724553847101,154.14615458004403L755.6828288488288,82.67440486959731L757.6932023129474,142.08661011806282L759.7035757770661,138.42009591344697L761.7139492411849,176.15055183996526L763.7243227053035,115.00877081721907L765.7346961694221,99.48751549017912L767.7450696335408,146.34750462760383L769.7554430976595,148.72155110777788L771.7658165617783,292.78199878053124L773.7761900258968,139.04121688545274L775.7865634900155,148.07548163490378L777.7969369541343,177.59059607135222L779.8073104182529,132.3968444598797L781.8176838823715,166.11884344714178L783.8280573464901,126.77461275954644L785.8384308106089,178.95794153160426L787.8488042747276,139.59096064773905L789.8591777388463,152.29411196571277L791.8695512029649,176.2616854850477L793.8799246670836,158.54904280537986L795.8902981312023,160.2086273977671L797.900671595321,160.65986003814928L799.9110450594396,126.43980000990877L801.9214185235583,135.15376339872847L803.931791987677,144.7265676483188L805.9421654517956,193.25464449767728L807.9525389159144,137.8438048833116L809.962912380033,139.11127898039769L811.9732858441516,152.458926790829L813.9836593082704,118.94360711566996L815.9940327723891,82.9685135276374L818.0044062365076,162.05842013437146L820.0147797006264,137.42592071708756L822.025153164745,142.48863554730082L824.0355266288637,161.7919159933128L826.0459000929825,144.0566584968372L828.056273557101,164.8789674203961L830.0666470212198,109.95827881843898L832.0770204853385,159.08142576331514L834.0873939494571,161.7682374807316L836.0977674135758,137.06913781474722L838.1081408776944,146.01956399732677L840.1185143418131,146.69086562327544L842.1288878059319,119.63029042716694L844.1392612700504,145.70276316278628L846.1496347341691,115.9308596733434L848.1600081982879,106.30099620380852L850.1703816624065,132.98863321510228L852.1807551265252,129.4603865677536L854.1911285906438,95.94522805862087L856.2015020547625,97.77512001430006L858.2118755188812,138.33891980932964L860.2222489829999,147.93181179243564L862.2326224471185,93.91586413553395L864.2429959112372,151.6902615450833L866.2533693753559,113.09565272556829L868.2637428394746,152.17292156059034L870.2741163035932,103.01489828762689L872.2844897677119,143.22473236245557L874.2948632318306,133.51810873792348L876.3052366959492,116.96522323001632L878.315610160068,136.12996535983703L880.3259836241866,132.46891790683267L882.3363570883052,123.65540548689954L884.346730552424,120.67936521871883L886.3571040165426,99.71309635384443L888.3674774806613,159.91325519808098L890.37785094478,134.53894724167085L892.3882244088986,130.61494130018605L894.3985978730174,117.99913552181569L896.4089713371361,142.90622316803652L898.4193448012546,130.18969506988142L900.4297182653734,144.0745156925491L902.440091729492,146.65678223203747L904.4504651936107,95.44462059442719L906.4608386577294,97.42996685241616L908.471212121848,70.54991049902475L910.4815855859667,128.32778909474177L912.4919590500855,141.19131350214744L914.5023325142041,78.38499042004555L916.5127059783227,150.6148264382729L918.5230794424414,86.8346415257641L920.5334529065601,124.15756014494555L922.5438263706789,90.19945292918148L924.5541998347974,100.76687719336373L926.5645732989161,112.70101514697502L928.5749467630349,137.3084758104159L930.5853202271535,154.04353050114918L932.5956936912722,139.60034695710968L934.6060671553907,98.22733899076304L936.6164406195095,83.12273007486536L938.6268140836282,157.6564022055776L940.6371875477469,143.50389770653888L942.6475610118655,139.26224642053583L944.6579344759842,157.23418589656708L946.6683079401029,130.82104041459445L948.6786814042216,102.8008053383149L950.6890548683402,133.5828201207959L952.6994283324589,152.09762479311175L954.7098017965776,141.77521156872328L956.7201752606962,119.84198522600784L958.730548724815,136.6315398201884L960.7409221889336,147.17967573434535L962.7512956530522,98.04520848778317L964.761669117171,67.31399323678605L966.7720425812897,142.31204915562498L968.7824160454082,137.83997557852717L970.792789509527,129.88723156503895L972.8031629736456,145.60319479174973L974.8135364377644,125.09069854383176L976.8239099018831,132.01159319065707L978.8342833660016,93.90462119354058L980.8446568301204,149.67870324457996L982.8550302942391,104.19585846180524L984.8654037583577,147.18918452989593L986.8757772224764,140.22590321815866L988.886150686595,179.32921003638674L990.8965241507137,106.97779036793288L992.9068976148325,141.64039941105955L994.917271078951,118.67613597845363L996.9276445430697,137.2978517459634L998.9380180071885,101.37879236194829L1000.9483914713071,123.29831314578874L1002.9587649354258,106.24240912993476L1004.9691383995444,107.2979950289484L1006.9795118636631,167.89136674410585L1008.9898853277818,86.58649741841943L1011.0002587919005,127.41422269808716L1013.0106322560191,112.18053913506134L1015.0210057201379,143.32646035824428L1017.0313791842565,128.0369295437915L1019.0417526483752,120.77436292125002L1021.0521261124939,130.78247660782588L1023.0624995766125,143.7480642363549L1025.0728730407313,116.83266739672055L1027.0832465048497,134.13837875331043L1029.0936199689686,110.3687106676078L1031.1039934330872,119.31394085750003L1033.1143668972059,107.76957971512937L1035.1247403613245,143.43296531505197" fill="none"></path></g></g></g></g></g></g><g transform="translate(50, 374)" clip-path="url(#clip_1)"><clipPath id="clip_1"><rect width="1062" height="26"></rect></clipPath><g><g><line x1="29.938008301987125" y1="0" x2="29.938008301987125" y2="5" style="visibility: inherit;" fill="rgb(0, 0, 0)" stroke="rgb(204, 204, 204)" stroke-width="1px"></line><line x1="130.45668150792088" y1="0" x2="130.45668150792088" y2="5" style="visibility: inherit;" fill="rgb(0, 0, 0)" stroke="rgb(204, 204, 204)" stroke-width="1px"></line><line x1="230.9753547138546" y1="0" x2="230.9753547138546" y2="5" style="visibility: inherit;" fill="rgb(0, 0, 0)" stroke="rgb(204, 204, 204)" stroke-width="1px"></line><line x1="331.4940279197883" y1="0" x2="331.4940279197883" y2="5" style="visibility: inherit;" fill="rgb(0, 0, 0)" stroke="rgb(204, 204, 204)" stroke-width="1px"></line><line x1="432.0127011257222" y1="0" x2="432.0127011257222" y2="5" style="visibility: inherit;" fill="rgb(0, 0, 0)" stroke="rgb(204, 204, 204)" stroke-width="1px"></line><line x1="532.5313743316559" y1="0" x2="532.5313743316559" y2="5" style="visibility: inherit;" fill="rgb(0, 0, 0)" stroke="rgb(204, 204, 204)" stroke-width="1px"></line><line x1="633.0500475375895" y1="0" x2="633.0500475375895" y2="5" style="visibility: inherit;" fill="rgb(0, 0, 0)" stroke="rgb(204, 204, 204)" stroke-width="1px"></line><line x1="733.5687207435234" y1="0" x2="733.5687207435234" y2="5" style="visibility: inherit;" fill="rgb(0, 0, 0)" stroke="rgb(204, 204, 204)" stroke-width="1px"></line><line x1="834.0873939494571" y1="0" x2="834.0873939494571" y2="5" style="visibility: inherit;" fill="rgb(0, 0, 0)" stroke="rgb(204, 204, 204)" stroke-width="1px"></line><line x1="934.6060671553907" y1="0" x2="934.6060671553907" y2="5" style="visibility: inherit;" fill="rgb(0, 0, 0)" stroke="rgb(204, 204, 204)" stroke-width="1px"></line><line x1="1035.1247403613245" y1="0" x2="1035.1247403613245" y2="5" style="visibility: inherit;" fill="rgb(0, 0, 0)" stroke="rgb(204, 204, 204)" stroke-width="1px"></line></g><g transform="translate(0, 8)"><text x="29.938008301987125" y="0" dx="0em" dy="0.95em" style="text-anchor: middle; visibility: inherit; font-family: Roboto, sans-serif; font-size: 12px; font-weight: 200;" fill="rgb(50, 49, 63)" stroke="none" stroke-width="1px">0</text><text x="130.45668150792088" y="0" dx="0em" dy="0.95em" style="text-anchor: middle; visibility: inherit; font-family: Roboto, sans-serif; font-size: 12px; font-weight: 200;" fill="rgb(50, 49, 63)" stroke="none" stroke-width="1px">500k</text><text x="230.9753547138546" y="0" dx="0em" dy="0.95em" style="text-anchor: middle; visibility: inherit; font-family: Roboto, sans-serif; font-size: 12px; font-weight: 200;" fill="rgb(50, 49, 63)" stroke="none" stroke-width="1px">1M</text><text x="331.4940279197883" y="0" dx="0em" dy="0.95em" style="text-anchor: middle; visibility: inherit; font-family: Roboto, sans-serif; font-size: 12px; font-weight: 200;" fill="rgb(50, 49, 63)" stroke="none" stroke-width="1px">1.5M</text><text x="432.0127011257222" y="0" dx="0em" dy="0.95em" style="text-anchor: middle; visibility: inherit; font-family: Roboto, sans-serif; font-size: 12px; font-weight: 200;" fill="rgb(50, 49, 63)" stroke="none" stroke-width="1px">2M</text><text x="532.5313743316559" y="0" dx="0em" dy="0.95em" style="text-anchor: middle; visibility: inherit; font-family: Roboto, sans-serif; font-size: 12px; font-weight: 200;" fill="rgb(50, 49, 63)" stroke="none" stroke-width="1px">2.5M</text><text x="633.0500475375895" y="0" dx="0em" dy="0.95em" style="text-anchor: middle; visibility: inherit; font-family: Roboto, sans-serif; font-size: 12px; font-weight: 200;" fill="rgb(50, 49, 63)" stroke="none" stroke-width="1px">3M</text><text x="733.5687207435234" y="0" dx="0em" dy="0.95em" style="text-anchor: middle; visibility: inherit; font-family: Roboto, sans-serif; font-size: 12px; font-weight: 200;" fill="rgb(50, 49, 63)" stroke="none" stroke-width="1px">3.5M</text><text x="834.0873939494571" y="0" dx="0em" dy="0.95em" style="text-anchor: middle; visibility: inherit; font-family: Roboto, sans-serif; font-size: 12px; font-weight: 200;" fill="rgb(50, 49, 63)" stroke="none" stroke-width="1px">4M</text><text x="934.6060671553907" y="0" dx="0em" dy="0.95em" style="text-anchor: middle; visibility: inherit; font-family: Roboto, sans-serif; font-size: 12px; font-weight: 200;" fill="rgb(50, 49, 63)" stroke="none" stroke-width="1px">4.5M</text><text x="1035.1247403613245" y="0" dx="0em" dy="0.95em" style="text-anchor: middle; visibility: inherit; font-family: Roboto, sans-serif; font-size: 12px; font-weight: 200;" fill="rgb(50, 49, 63)" stroke="none" stroke-width="1px">5M</text></g><line x1="0" y1="0" x2="1062.2" y2="0" fill="rgb(0, 0, 0)" stroke="rgb(204, 204, 204)" stroke-width="1px"></line></g></g></g></g></svg>