<svg viewBox="0 0 1112.2000732421875 400" xmlns="http://www.w3.org/2000/svg"><g><g><g><g><g><line x1="40" y1="368.2415545750804" x2="35" y2="368.2415545750804" style="visibility: inherit;" fill="rgb(0, 0, 0)" stroke="rgb(204, 204, 204)" stroke-width="1px"></line><line x1="40" y1="332.1538352768348" x2="35" y2="332.1538352768348" style="visibility: inherit;" fill="rgb(0, 0, 0)" stroke="rgb(204, 204, 204)" stroke-width="1px"></line><line x1="40" y1="296.06611597858927" x2="35" y2="296.06611597858927" style="visibility: inherit;" fill="rgb(0, 0, 0)" stroke="rgb(204, 204, 204)" stroke-width="1px"></line><line x1="40" y1="259.9783966803436" x2="35" y2="259.9783966803436" style="visibility: inherit;" fill="rgb(0, 0, 0)" stroke="rgb(204, 204, 204)" stroke-width="1px"></line><line x1="40" y1="223.89067738209803" x2="35" y2="223.89067738209803" style="visibility: inherit;" fill="rgb(0, 0, 0)" stroke="rgb(204, 204, 204)" stroke-width="1px"></line><line x1="40" y1="187.80295808385247" x2="35" y2="187.80295808385247" style="visibility: inherit;" fill="rgb(0, 0, 0)" stroke="rgb(204, 204, 204)" stroke-width="1px"></line><line x1="40" y1="151.7152387856069" x2="35" y2="151.7152387856069" style="visibility: inherit;" fill="rgb(0, 0, 0)" stroke="rgb(204, 204, 204)" stroke-width="1px"></line><line x1="40" y1="115.62751948736131" x2="35" y2="115.62751948736131" style="visibility: inherit;" fill="rgb(0, 0, 0)" stroke="rgb(204, 204, 204)" stroke-width="1px"></line><line x1="40" y1="79.53980018911575" x2="35" y2="79.53980018911575" style="visibility: inherit;" fill="rgb(0, 0, 0)" stroke="rgb(204, 204, 204)" stroke-width="1px"></line><line x1="40" y1="43.45208089087015" x2="35" y2="43.45208089087015" style="visibility: inherit;" fill="rgb(0, 0, 0)" stroke="rgb(204, 204, 204)" stroke-width="1px"></line><line x1="40" y1="7.364361592624592" x2="35" y2="7.364361592624592" style="visibility: inherit;" fill="rgb(0, 0, 0)" stroke="rgb(204, 204, 204)" stroke-width="1px"></line></g><g transform="translate(30, 0)"><text x="0" y="368.2415545750804" dx="0em" dy="0.3em" style="text-anchor: end; visibility: inherit; font-family: Roboto, sans-serif; font-size: 12px; font-weight: 200;" fill="rgb(50, 49, 63)" stroke="none" stroke-width="1px">50</text><text x="0" y="332.1538352768348" dx="0em" dy="0.3em" style="text-anchor: end; visibility: inherit; font-family: Roboto, sans-serif; font-size: 12px; font-weight: 200;" fill="rgb(50, 49, 63)" stroke="none" stroke-width="1px">100</text><text x="0" y="296.06611597858927" dx="0em" dy="0.3em" style="text-anchor: end; visibility: inherit; font-family: Roboto, sans-serif; font-size: 12px; font-weight: 200;" fill="rgb(50, 49, 63)" stroke="none" stroke-width="1px">150</text><text x="0" y="259.9783966803436" dx="0em" dy="0.3em" style="text-anchor: end; visibility: inherit; font-family: Roboto, sans-serif; font-size: 12px; font-weight: 200;" fill="rgb(50, 49, 63)" stroke="none" stroke-width="1px">200</text><text x="0" y="223.89067738209803" dx="0em" dy="0.3em" style="text-anchor: end; visibility: inherit; font-family: Roboto, sans-serif; font-size: 12px; font-weight: 200;" fill="rgb(50, 49, 63)" stroke="none" stroke-width="1px">250</text><text x="0" y="187.80295808385247" dx="0em" dy="0.3em" style="text-anchor: end; visibility: inherit; font-family: Roboto, sans-serif; font-size: 12px; font-weight: 200;" fill="rgb(50, 49, 63)" stroke="none" stroke-width="1px">300</text><text x="0" y="151.7152387856069" dx="0em" dy="0.3em" style="text-anchor: end; visibility: inherit; font-family: Roboto, sans-serif; font-size: 12px; font-weight: 200;" fill="rgb(50, 49, 63)" stroke="none" stroke-width="1px">350</text><text x="0" y="115.62751948736131" dx="0em" dy="0.3em" style="text-anchor: end; visibility: inherit; font-family: Roboto, sans-serif; font-size: 12px; font-weight: 200;" fill="rgb(50, 49, 63)" stroke="none" stroke-width="1px">400</text><text x="0" y="79.53980018911575" dx="0em" dy="0.3em" style="text-anchor: end; visibility: inherit; font-family: Roboto, sans-serif; font-size: 12px; font-weight: 200;" fill="rgb(50, 49, 63)" stroke="none" stroke-width="1px">450</text><text x="0" y="43.45208089087015" dx="0em" dy="0.3em" style="text-anchor: end; visibility: inherit; font-family: Roboto, sans-serif; font-size: 12px; font-weight: 200;" fill="rgb(50, 49, 63)" stroke="none" stroke-width="1px">500</text><text x="0" y="7.364361592624592" dx="0em" dy="0.3em" style="text-anchor: end; visibility: inherit; font-family: Roboto, sans-serif; font-size: 12px; font-weight: 200;" fill="rgb(50, 49, 63)" stroke="none" stroke-width="1px">550</text></g><line x1="40" y1="0" x2="40" y2="374" fill="rgb(0, 0, 0)" stroke="rgb(204, 204, 204)" stroke-width="1px"></line></g></g><g transform="translate(40, 0)" clip-path="url(#clip_0)"><clipPath id="clip_0"><rect width="1072" height="374"></rect></clipPath><g><g><g><line x1="15.189861697710942" y1="0" x2="15.189861697710942" y2="374" fill="rgb(0, 0, 0)" stroke="rgb(60, 60, 60)" stroke-width="1px" opacity="0.25"></line><line x1="118.64674074738693" y1="0" x2="118.64674074738693" y2="374" fill="rgb(0, 0, 0)" stroke="rgb(60, 60, 60)" stroke-width="1px" opacity="0.25"></line><line x1="222.10361979706292" y1="0" x2="222.10361979706292" y2="374" fill="rgb(0, 0, 0)" stroke="rgb(60, 60, 60)" stroke-width="1px" opacity="0.25"></line><line x1="325.5604988467389" y1="0" x2="325.5604988467389" y2="374" fill="rgb(0, 0, 0)" stroke="rgb(60, 60, 60)" stroke-width="1px" opacity="0.25"></line><line x1="429.01737789641487" y1="0" x2="429.01737789641487" y2="374" fill="rgb(0, 0, 0)" stroke="rgb(60, 60, 60)" stroke-width="1px" opacity="0.25"></line><line x1="532.4742569460908" y1="0" x2="532.4742569460908" y2="374" fill="rgb(0, 0, 0)" stroke="rgb(60, 60, 60)" stroke-width="1px" opacity="0.25"></line><line x1="635.9311359957668" y1="0" x2="635.9311359957668" y2="374" fill="rgb(0, 0, 0)" stroke="rgb(60, 60, 60)" stroke-width="1px" opacity="0.25"></line><line x1="739.3880150454429" y1="0" x2="739.3880150454429" y2="374" fill="rgb(0, 0, 0)" stroke="rgb(60, 60, 60)" stroke-width="1px" opacity="0.25"></line><line x1="842.8448940951189" y1="0" x2="842.8448940951189" y2="374" fill="rgb(0, 0, 0)" stroke="rgb(60, 60, 60)" stroke-width="1px" opacity="0.25"></line><line x1="946.3017731447948" y1="0" x2="946.3017731447948" y2="374" fill="rgb(0, 0, 0)" stroke="rgb(60, 60, 60)" stroke-width="1px" opacity="0.25"></line><line x1="1049.7586521944706" y1="0" x2="1049.7586521944706" y2="374" fill="rgb(0, 0, 0)" stroke="rgb(60, 60, 60)" stroke-width="1px" opacity="0.25"></line></g><g><line x1="0" y1="368.2415545750804" x2="1072.2" y2="368.2415545750804" fill="rgb(0, 0, 0)" stroke="rgb(60, 60, 60)" stroke-width="1px" opacity="0.25"></line><line x1="0" y1="332.1538352768348" x2="1072.2" y2="332.1538352768348" fill="rgb(0, 0, 0)" stroke="rgb(60, 60, 60)" stroke-width="1px" opacity="0.25"></line><line x1="0" y1="296.06611597858927" x2="1072.2" y2="296.06611597858927" fill="rgb(0, 0, 0)" stroke="rgb(60, 60, 60)" stroke-width="1px" opacity="0.25"></line><line x1="0" y1="259.9783966803436" x2="1072.2" y2="259.9783966803436" fill="rgb(0, 0, 0)" stroke="rgb(60, 60, 60)" stroke-width="1px" opacity="0.25"></line><line x1="0" y1="223.89067738209803" x2="1072.2" y2="223.89067738209803" fill="rgb(0, 0, 0)" stroke="rgb(60, 60, 60)" stroke-width="1px" opacity="0.25"></line><line x1="0" y1="187.80295808385247" x2="1072.2" y2="187.80295808385247" fill="rgb(0, 0, 0)" stroke="rgb(60, 60, 60)" stroke-width="1px" opacity="0.25"></line><line x1="0" y1="151.7152387856069" x2="1072.2" y2="151.7152387856069" fill="rgb(0, 0, 0)" stroke="rgb(60, 60, 60)" stroke-width="1px" opacity="0.25"></line><line x1="0" y1="115.62751948736131" x2="1072.2" y2="115.62751948736131" fill="rgb(0, 0, 0)" stroke="rgb(60, 60, 60)" stroke-width="1px" opacity="0.25"></line><line x1="0" y1="79.53980018911575" x2="1072.2" y2="79.53980018911575" fill="rgb(0, 0, 0)" stroke="rgb(60, 60, 60)" stroke-width="1px" opacity="0.25"></line><line x1="0" y1="43.45208089087015" x2="1072.2" y2="43.45208089087015" fill="rgb(0, 0, 0)" stroke="rgb(60, 60, 60)" stroke-width="1px" opacity="0.25"></line><line x1="0" y1="7.364361592624592" x2="1072.2" y2="7.364361592624592" fill="rgb(0, 0, 0)" stroke="rgb(60, 60, 60)" stroke-width="1px" opacity="0.25"></line></g></g></g><g><g><line x1="0" y1="404.3292738733259" x2="1072.2" y2="404.3292738733259" fill="rgb(0, 0, 0)" stroke="rgb(153, 153, 153)" stroke-width="1.5px"></line></g></g><g><g><line x1="15.189861697710942" y1="0" x2="15.189861697710942" y2="374" fill="rgb(0, 0, 0)" stroke="rgb(153, 153, 153)" stroke-width="1.5px"></line></g></g><g><g><g><g><g><path stroke="rgb(0, 153, 136)" stroke-width="2px" d="M17.25899927870446,295.1203661938184L19.32813685969798,286.85616198041765L21.3972744406915,293.4929200905647L23.46641202168502,288.7533994038267L25.53554960267854,288.8507231850668L27.604687183672063,288.4749052813093L29.673824764665582,287.85913908484446L31.742962345659098,289.70457845948494L33.81209992665262,286.2061699179136L35.881237507646134,283.47151564688164L37.95037508863965,283.9689467338505L40.01951266963318,274.5938235109569L42.0886502506267,269.7108796587058L44.15778783162022,267.5731498957248L46.22692541261374,263.9946610941544L48.29606299360726,257.3792161814985L50.36520057460078,248.7181810019685L52.434338155594304,242.79629877655927L54.503475736587816,235.85756192498943L56.572613317581336,228.05446785832214L58.641750898574855,226.8556275804394L60.710888479568375,221.0679785855891L62.780026060561894,227.46677878616785L64.84916364155542,229.523182755142L66.91830122254893,229.29491983214905L68.98743880354246,230.92473691131562L71.05657638453597,231.29915704898937L73.1257139655295,224.12879776400115L75.19485154652303,222.7546297294322L77.26398912751654,218.5059491056866L79.33312670851006,218.61832034269952L81.40226428950356,210.68415690807947L83.47140187049709,200.15957874538444L85.5405394514906,207.786372798328L87.60967703248413,203.6479068675791L89.67881461347766,207.7637849294578L91.74795219447117,204.3160490340441L93.8170897754647,213.02466602168946L95.8862273564582,213.70518237091707L97.95536493745173,223.98171773575146L100.02450251844525,232.41494810977247L102.09364009943877,234.25145456833084L104.1627776804323,226.18233841436617L106.23191526142581,215.63433731133213L108.30105284241934,208.24079864233516L110.37019042341285,208.83539935072068L112.43932800440638,200.90045669773434L114.50846558539989,195.65704875544725L116.5776031663934,201.02523887485106L118.64674074738693,207.2719837152782L120.71587832838044,212.13664034821653L122.78501590937397,208.59874721705714L124.85415349036748,206.4530851898659L126.923291071361,213.31914062989622L128.99242865235453,212.74172520423636L131.06156623334803,220.65344254887182L133.13070381434156,222.7581533386295L135.19984139533508,215.8167182802744L137.26897897632858,197.09404002672824L139.3381165573221,190.70040425548788L141.40725413831564,196.80547868079063L143.47639171930916,177.67683738545833L145.54552930030266,178.71785261659372L147.6146668812962,190.76496556062082L149.68380446228971,197.39401209309915L151.75294204328324,192.06911756925368L153.82207962427677,196.95090953073165L155.89121720527027,199.24219200357615L157.9603547862638,198.75448443366614L160.02949236725732,210.25908727466725L162.09862994825085,220.5093282817122L164.16776752924437,230.90707659665958L166.23690511023787,230.03420289487164L168.3060426912314,231.14217769155567L170.37518027222492,238.72117342278003L172.44431785321845,248.6961299042255L174.51345543421195,252.95576900471693L176.58259301520548,261.6928682459595L178.651730596199,266.4924740388384L180.72086817719253,268.66610816373543L182.79000575818606,269.8877588667809L184.85914333917955,268.04746198519825L186.92828092017308,270.7315808996633L188.9974185011666,269.82180741398713L191.06655608216013,267.0626315132767L193.13569366315366,269.3206152509789L195.20483124414716,265.09006685873277L197.27396882514068,265.5784391147644L199.3431064061342,262.2065560546257L201.41224398712774,258.9362407639913L203.48138156812126,263.5344861814284L205.55051914911473,265.73915556266263L207.61965673010826,258.5620726996976L209.6887943111018,255.3686302286626L211.7579318920953,251.73150237959925L213.8270694730888,256.579054044465L215.89620705408234,255.04253440992233L217.96534463507587,257.8654140803313L220.0344822160694,259.58716849550905L222.10361979706292,261.3392706584548L224.17275737805642,252.4240870894499L226.24189495904994,247.70100474710165L228.31103254004347,243.32988883183617L230.380170121037,238.93475681941385L232.4493077020305,242.01132070360615L234.51844528302402,232.8296832668844L236.58758286401755,227.151624187238L238.65672044501108,228.40807518141335L240.7258580260046,233.16708785094127L242.7949956069981,228.66537154012312L244.86413318799163,217.47645418841415L246.93327076898515,218.81915060918217L249.00240834997868,214.21650729963417L251.0715459309722,211.16148285341458L253.1406835119657,208.7213663383553L255.20982109295923,200.9409434657647L257.27895867395273,209.8868898603748L259.34809625494626,211.06559865438592L261.4172338359398,205.8807766806149L263.4863714169333,205.92210331856444L265.55550899792684,207.6354594115992L267.62464657892036,215.51856133497517L269.6937841599139,205.13487577759724L271.76292174090736,205.03102010942797L273.83205932190094,198.28484392792336L275.9011969028944,213.80911508097313L277.97033448388794,212.96802201505326L280.03947206488147,204.55629650951155L282.108609645875,198.80143870950334L284.1777472268685,201.94272504051432L286.24688480786205,196.6501152214294L288.3160223888555,195.80622894922158L290.3851599698491,188.929781049276L292.45429755084257,181.66109099532156L294.52343513183615,191.20604275968253L296.5925727128296,181.19314249503742L298.66171029382315,187.59035082635955L300.7308478748167,196.8361217467456L302.7999854558102,191.9259451545177L304.86912303680367,188.14666572284068L306.93826061779725,175.24801752529223L309.0073981987907,180.548372244135L311.0765357797843,166.20228235555757L313.1456733607778,166.8917735589023L315.21481094177125,165.57936445494906L317.28394852276483,167.1808096618495L319.3530861037583,165.1836925611967L321.4222236847519,168.15817899649124L323.49136126574535,167.15431538807945L325.5604988467389,167.71772969255065L327.6296364277324,164.33163878483919L329.69877400872593,132.9211967441485L331.76791158971946,124.67001040788834L333.837049170713,133.55585145289822L335.90618675170646,135.88322306434813L337.97532433270004,182.3548893664946L340.0444619136935,162.38625723679942L342.1135994946871,168.35268486637653L344.18273707568056,172.14397404763213L346.2518746566741,171.72580886799983L348.3210122376676,178.66888602005537L350.39014981866114,172.13778552438893L352.45928739965467,170.95382661522902L354.5284249806482,171.69646518194574L356.59756256164167,171.3048685286374L358.66670014263525,171.8562691716568L360.7358377236287,171.95649906321395L362.8049753046223,179.1269022083162L364.8741128856158,173.8114752255287L366.9432504666093,167.54574110186385L369.0123880476028,170.69499151580544L371.08152562859635,168.1086007049802L373.1506632095898,177.09631679595475L375.2198007905834,183.05638389802098L377.2889383715769,177.74087154605968L379.35807595257046,165.49262657934122L381.42721353356393,173.6645121861988L383.49635111455746,180.26182179344676L385.565488695551,176.08349760852835L387.63462627654445,176.3731650042716L389.70376385753804,172.00867060440862L391.7729014385315,180.29022214497937L393.84203901952503,170.66171231306856L395.91117660051856,157.03923655802856L397.9803141815121,166.41144418641838L400.0494517625056,180.47969720083697L402.11858934349914,178.91735535888543L404.1877269244926,180.90068955476633L406.2568645054862,183.10903747916223L408.32600208647966,193.88172510887222L410.39513966747325,198.16690839434938L412.4642772484667,194.58461907752138L414.53341482946024,205.51961120997075L416.60255241045377,202.89826190156455L418.6716899914473,201.132989474525L420.74082757244076,177.10305337182913L422.80996515343435,178.8269638796635L424.8791027344278,166.25123290450628L426.9482403154214,176.9927888104156L429.01737789641487,176.47631390173947L431.0865154774084,176.59825159275704L433.1556530584019,173.32980254652367L435.22479063939545,172.2547845311824L437.293928220389,185.6098117363196L439.3630658013825,185.90906804889775L441.432203382376,182.63577062500192L443.50134096336956,175.34196688870188L445.570478544363,174.1648608064429L447.6396161253566,160.70549940768964L449.7087537063501,170.61260388235135L451.7778912873436,170.93863756187855L453.84702886833713,177.14757261910705L455.91616644933066,158.87171404525242L457.9853040303242,159.27932441238855L460.05444161131766,168.1477397367478L462.1235791923112,169.05590828624003L464.1927167733047,159.2529919989321L466.26185435429824,163.34540782333804L468.33099193529176,156.04792945284638L470.4001295162853,155.24415276188404L472.46926709727876,156.36681294266006L474.53840467827234,150.35534547196082L476.6075422592658,154.0079267015931L478.6766798402594,158.60166982015022L480.74581742125287,164.55666633236845L482.8149550022464,159.91098456564913L484.8840925832399,151.83577657389165L486.95323016423345,161.2833076816849L489.0223677452269,139.02471351938274L491.0915053262205,124.73872559788116L493.16064290721397,126.1798459073527L495.22978048820755,128.0287170812595L497.298918069201,140.97214940963926L499.36805565019455,140.84208683921187L501.4371932311881,147.15649228288711L503.5063308121816,131.59419772378197L505.57546839317513,127.89877053661299L507.64460597416866,121.95604226301197L509.7137435551621,125.3792522565215L511.7828811361557,137.02946491321575L513.8520187171492,146.4939859157641L515.9211562981427,148.91655653239303L517.9902938791362,155.31219084444962L520.0594314601298,152.86058990636525L522.1285690411232,149.32140534730408L524.1977066221168,158.39111087987968L526.2668442031103,152.99606803997247L528.3359817841038,146.3042574458325L530.4051193650973,140.85602143925342L532.4742569460908,145.49495302829865L534.5433945270844,161.88881051020675L536.612532108078,161.60817870409232L538.6816696890713,160.71565838589686L540.7508072700649,164.2318126935493L542.8199448510585,156.10991930938752L544.8890824320521,152.2495834115084L546.9582200130454,152.751694749486L549.027357594039,153.3994032119151L551.0964951750326,160.04603299241208L553.1656327560261,162.8647071845626L555.2347703370195,165.6334780405616L557.3039079180131,173.04779587924645L559.3730454990066,170.05921350768477L561.4421830800002,184.97096629811534L563.5113206609936,195.57814260079797L565.5804582419872,204.4071552975751L567.6495958229807,212.64911494744126L569.7187334039743,222.39360267166015L571.7878709849678,232.8439771988371L573.8570085659612,238.3533469960173L575.9261461469548,241.02600017704037L577.9952837279484,244.72873592387015L580.0644213089417,241.5715803558666L582.1335588899353,241.97651394718233L584.2026964709289,245.17762164144685L586.2718340519224,246.06383850460932L588.3409716329159,246.02249403838212L590.4101092139094,245.9235865712118L592.479246794903,251.47438489353675L594.5483843758965,251.0413048142462L596.61752195689,258.54411573132535L598.6866595378835,264.47440488311156L600.755797118877,265.90223999857153L602.8249346998705,269.35613091508975L604.8940722808641,263.58311038393L606.9632098618575,260.04879909045263L609.0323474428511,259.0762288719742L611.1014850238446,258.05592639249545L613.1706226048382,257.15844739333875L615.2397601858316,246.13190938015998L617.3088977668252,237.8460432809691L619.3780353478187,224.56215294324872L621.4471729288122,213.8255352377312L623.5163105098057,198.89302705836036L625.5854480907993,180.36851827048315L627.6545856717927,170.17964138983538L629.7237232527863,148.07171136198244L631.7928608337799,143.06968526005025L633.8619984147734,139.37762053513143L635.9311359957668,135.77759682194528L638.0002735767604,129.60114618935552L640.069411157754,138.15133020425412L642.1385487387474,133.43004174508613L644.2076863197409,132.64358247883104L646.2768239007345,129.6791977806707L648.345961481728,121.48510919874607L650.4150990627215,124.86619448940499L652.484236643715,116.26436000597475L654.5533742247085,116.73322340324576L656.6225118057021,111.66189226533682L658.6916493866956,112.61006010240544L660.7607869676891,117.02640542434932L662.8299245486826,112.35423914746774L664.8990621296762,111.67036769822816L666.9681997106698,110.59101192110069L669.0373372916631,113.91861898491132L671.1064748726567,111.45586964504014L673.1756124536503,115.82299878856608L675.2447500346436,111.31457633669955L677.3138876156372,122.53949453525982L679.3830251966308,122.7140255853361L681.4521627776244,138.73196938655727L683.5213003586177,158.61274215214362L685.5904379396113,160.02402657298032L687.6595755206049,157.186074561781L689.7287131015984,162.2794887267902L691.7978506825918,172.92539198519546L693.8669882635854,160.4607093056328L695.9361258445789,162.44669414899602L698.0052634255725,163.02168230680408L700.074401006566,153.16135162536827L702.1435385875594,162.95677877986662L704.212676168553,161.13714901009573L706.2818137495466,158.9052552678638L708.35095133054,157.0084242854372L710.4200889115335,151.66903566708783L712.4892264925271,151.9248771744094L714.5583640735207,139.2491112119724L716.627501654514,140.9136539703088L718.6966392355076,144.64320523127137L720.7657768165012,143.08398299091522L722.8349143974947,136.37292361582806L724.9040519784882,125.93591893202756L726.9731895594817,133.531311846257L729.0423271404753,133.09619810489522L731.1114647214688,143.92441034302837L733.1806023024623,146.16948497565727L735.2497398834558,144.14177945937828L737.3188774644493,132.24627571444375L739.3880150454429,125.19249833098931L741.4571526264364,123.96383444146119L743.5262902074298,118.19569465813508L745.5954277884234,111.50934158070321L747.6645653694169,111.1300517170136L749.7337029504104,115.76342158815753L751.802840531404,111.29274249363903L753.8719781123975,120.48994789880824L755.941115693391,117.01908368290455L758.0102532743845,110.22615337788993L760.079390855378,116.73505128925449L762.1485284363716,104.16498552774851L764.217666017365,108.86526389399259L766.2868035983586,111.71896325442555L768.3559411793522,124.43539692382996L770.4250787603456,114.10298810320293L772.4942163413391,104.19835172181433L774.5633539223327,111.93620618963729L776.6324915033263,120.21813696998458L778.7016290843197,171.25601824999617L780.7707666653132,160.33743081714778L782.8399042463068,156.11090907108155L784.9090418273003,161.87191536486378L786.9781794082938,154.4621750861047L789.0473169892873,157.50093883126485L791.1164545702808,146.58464781687354L793.1855921512744,152.68167206359445L795.254729732268,146.7998912545224L797.3238673132613,146.5781851152658L799.3930048942549,155.5711405099357L801.4621424752485,158.91177516644052L803.531280056242,158.20865824500584L805.6004176372354,154.81400120217006L807.669555218229,146.24291976506424L809.7386927992226,138.91306849070517L811.807830380216,135.77719350191958L813.8769679612095,149.57459203234123L815.9461055422031,147.84814974057045L818.0152431231966,143.95212856331818L820.08438070419,140.68010182976397L822.1535182851836,131.2120295687259L824.2226558661772,115.04855800449864L826.2917934471707,121.53717633374318L828.3609310281641,120.19834356087235L830.4300686091577,124.35708037248938L832.4992061901512,130.4734804813053L834.5683437711448,132.87414267619113L836.6374813521383,132.6381933211143L838.7066189331317,123.92283791548628L840.7757565141253,133.80029827342963L842.8448940951189,140.900200258472L844.9140316761124,139.37527388615095L846.9831692571058,138.11420107014365L849.0523068380994,137.91962925211382L851.121444419093,129.79994253936346L853.1905820000864,132.07960140441185L855.2597195810799,120.15323784746491L857.3288571620735,109.80623492679764L859.397994743067,109.7469454693243L861.4671323240605,106.79702956475258L863.536269905054,92.3453100208341L865.6054074860476,88.16197872934652L867.6745450670411,97.2126390949194L869.7436826480345,99.97451930966399L871.812820229028,90.76691666136983L873.8819578100215,99.27796408931823L875.9510953910151,97.22493657243561L878.0202329720086,109.84943227283094L880.089370553002,99.39201988346593L882.1585081339956,106.14631132399902L884.2276457149892,103.37713154853682L886.2967832959826,97.73754686202476L888.3659208769761,99.53015081349008L890.4350584579697,103.37699668496596L892.5041960389633,101.18276771722752L894.5733336199567,101.66971736024826L896.6424712009502,97.03586831044468L898.7116087819438,108.24789363346166L900.7807463629373,111.7126521332917L902.8498839439308,112.01980250540433L904.9190215249243,110.00555140823757L906.9881591059178,112.3542535000252L909.0572966869114,116.99485520523635L911.1264342679049,118.35483312573756L913.1955718488983,118.04461016985509L915.2647094298919,103.46039148339746L917.3338470108855,96.25839603155868L919.402984591879,81.99212421864165L921.4721221728724,92.36078101832514L923.541259753866,99.25758046009355L925.6103973348596,89.40219784211308L927.679534915853,98.25105618072273L929.7486724968466,87.35541902605543L931.8178100778401,89.41261332036221L933.8869476588336,84.64979861249287L935.9560852398271,84.58051559833892L938.0252228208207,85.40956429752157L940.0943604018142,95.68573115828622L942.1634979828076,107.23229863941098L944.2326355638012,110.82676723248653L946.3017731447948,103.11899287877402L948.3709107257882,91.62494057859253L950.4400483067817,105.25077155017627L952.5091858877753,110.43832569747487L954.5783234687688,114.2883325805378L956.6474610497623,122.57279777594445L958.7165986307558,120.81175931729234L960.7857362117493,111.1075812539069L962.8548737927429,112.85602241322455L964.9240113737364,119.36595849540383L966.9931489547299,121.88678635520228L969.0622865357234,120.77272445769977L971.131424116717,122.16671478644594L973.2005616977106,126.25141269680103L975.2696992787039,112.12271854041884L977.3388368596975,93.4806611859477L979.4079744406911,99.64224337254619L981.4771120216845,105.6447267046615L983.546249602678,108.09099410209032L985.6153871836716,110.08331601199811L987.6845247646652,108.17810968644298L989.7536623456587,112.7859714750429L991.8227999266521,106.61790827691382L993.8919375076457,111.67883086379841L995.9610750886392,103.18887059903047L998.0302126696328,108.08932343984769L1000.0993502506262,114.275921357461L1002.1684878316197,126.3131678461912L1004.2376254126133,117.8679030789962L1006.3067629936069,120.57333884824806L1008.3759005746003,119.9423781888757L1010.4450381555938,116.66008433714191L1012.5141757365874,103.66133389759628L1014.5833133175809,109.03782100912453L1016.6524508985743,104.46362115484727L1018.7215884795679,98.49464723633771L1020.7907260605615,113.21121092508064L1022.8598636415549,97.36907916851267L1024.9290012225485,103.16540946561231L1026.998138803542,98.55325996888271L1029.0672763845355,104.91286888626743L1031.136413965529,101.96465528475514L1033.2055515465224,103.93106011797785L1035.274689127516,107.30591359024751L1037.3438267085096,108.07132369039735L1039.412964289503,105.17120039519169L1041.4821018704965,106.82941158204669L1043.5512394514901,103.49633439195075L1045.6203770324837,101.18786440119872L1047.689514613477,98.15740945351895L1049.7586521944706,101.61293848040118" style="fill: none;" fill="none"></path></g></g></g></g><g opacity="0.2"><g><g><g><path stroke="rgb(0, 153, 136)" stroke-width="2px" d="M17.25899927870446,295.1203661938184L19.32813685969798,280.24479860969706L21.3972744406915,303.04985176917654L23.46641202168502,279.5018550233141L25.53554960267854,289.0805630268434L27.604687183672063,287.46422570909226L29.673824764665582,286.0417519542094L31.742962345659098,295.5382692078844L33.81209992665262,274.56027798195584L35.881237507646134,274.0010548952473L37.95037508863965,285.7450260566714L40.01951266963318,240.31459843044647L42.0886502506267,251.52131763553314L44.15778783162022,259.4923225900887L46.22692541261374,250.31024029542382L48.29606299360726,231.84847763223507L50.36520057460078,215.04918615402786L52.434338155594304,219.64216560659605L54.503475736587816,208.6026032018966L56.572613317581336,197.29190933924926L58.641750898574855,222.11555321838676L60.710888479568375,198.1309091657809L62.780026060561894,252.87312034099673L64.84916364155542,237.70024316514696L66.91830122254893,228.38617990488453L68.98743880354246,237.4193761286287L71.05657638453597,232.792311137966L73.1257139655295,195.51670808385248L75.19485154652303,217.2685897013483L77.26398912751654,201.53752466999555L79.33312670851006,219.06724885533683L81.40226428950356,178.97893362909988L83.47140187049709,158.0946198141671L85.5405394514906,238.2742127899842L87.60967703248413,187.10243695069732L89.67881461347766,224.2206187829941L91.74795219447117,190.5295808694542L93.8170897754647,247.8500904273454L95.8862273564582,216.42668241696305L97.95536493745173,265.0810292658357L100.02450251844525,266.14338573149325L102.09364009943877,241.59669923910874L104.1627776804323,193.90861957645117L106.23191526142581,173.44520433822134L108.30105284241934,178.66825413648408L110.37019042341285,211.21369859020868L112.43932800440638,169.161792055378L114.50846558539989,174.68400164582135L116.5776031663934,222.49752049390588L118.64674074738693,232.25851729437878L120.71587832838044,231.5949891571717L122.78501590937397,194.44733627481327L124.85415349036748,197.87051547831516L126.923291071361,240.78316169499212L128.99242865235453,210.43207700389422L131.06156623334803,252.3001639211691L133.13070381434156,231.17696499902857L135.19984139533508,188.05106115402793L137.26897897632858,122.20350634017448L139.3381165573221,165.1259101616177L141.40725413831564,221.22573895800434L143.47639171930916,101.16236601071317L145.54552930030266,182.88190945703641L147.6146668812962,238.95337952625238L149.68380446228971,223.91018157853273L151.75294204328324,170.7695501698414L153.82207962427677,216.4780695319062L155.89121720527027,208.4073189493952L157.9603547862638,196.80365465560413L160.02949236725732,256.2774891732336L162.09862994825085,261.5102855631647L164.16776752924437,272.4980643813956L166.23690511023787,226.5427084554173L168.3060426912314,235.57407650490507L170.37518027222492,269.0371543043842L172.44431785321845,288.5959536786132L174.51345543421195,269.99432467170874L176.58259301520548,296.64126400490505L178.651730596199,285.69089668034366L180.72086817719253,277.3606444712992L182.79000575818606,274.7743615926243L184.85914333917955,260.68627456291625L186.92828092017308,281.4680564361173L188.9974185011666,266.1827135042026L191.06655608216013,256.025927990308L193.13569366315366,278.3525501494962L195.20483124414716,248.16787336812635L197.27396882514068,267.53192813165253L199.3431064061342,248.71902385405184L201.41224398712774,245.85497963247497L203.48138156812126,281.9274678162828L205.55051914911473,274.55783307421524L207.61965673010826,229.8537412826943L209.6887943111018,242.59486035693016L211.7579318920953,237.18299099465116L213.8270694730888,275.9692606918739L215.89620705408234,248.89645587480805L217.96534463507587,269.156932757475L220.0344822160694,266.47418615402785L222.10361979706292,268.3476793084532L224.17275737805642,216.76335282069456L226.24189495904994,228.8086753807874L228.31103254004347,225.84542517305368L230.380170121037,221.354228771558L232.4493077020305,254.31757623934857L234.51844528302402,196.10313352244896L236.58758286401755,204.43938786986533L238.65672044501108,233.43387915789987L240.7258580260046,252.20313852840252L242.7949956069981,210.6585062973427L244.86413318799163,172.72078478255725L246.93327076898515,224.18993629216004L249.00240834997868,195.8059340616999L251.0715459309722,198.94138506867296L253.1406835119657,198.96090027820557L255.20982109295923,169.81925197562538L257.27895867395273,245.67067543861017L259.34809625494626,215.78043383040875L261.4172338359398,185.14148878560687L263.4863714169333,206.0874098703622L265.55550899792684,214.48888378372223L267.62464657892036,247.05096902841964L269.6937841599139,163.600133548148L271.76292174090736,204.6155974367513L273.83205932190094,171.3001392019309L275.9011969028944,275.90619969312456L277.97033448388794,209.60364975137574L280.03947206488147,170.90939448736128L282.108609645875,175.78200750947954L284.1777472268685,214.5078703645542L286.24688480786205,175.47967594509495L288.3160223888555,192.43068386039099L290.3851599698491,161.42398944949804L292.45429755084257,152.58633077950765L294.52343513183615,229.3858498171224L296.5925727128296,141.14154143646013L298.66171029382315,213.17918415164647L300.7308478748167,233.81920542828775L302.7999854558102,172.28523878560688L304.86912303680367,173.0295479961332L306.93826061779725,123.6534247350998L309.0073981987907,201.74979111950555L311.0765357797843,108.81792280124907L313.1456733607778,169.64973837228106L315.21481094177125,160.32972803913623L317.28394852276483,173.58659048945145L319.3530861037583,157.19522415858523L321.4222236847519,180.05612473766962L323.49136126574535,163.13886095443226L325.5604988467389,169.97138691043557L327.6296364277324,150.78727515399368L329.69877400872593,7.279428581385556L331.76791158971946,91.6652650628479L333.837049170713,169.09921563293761L335.90618675170646,145.19270951014775L337.97532433270004,368.2415545750804L340.0444619136935,82.51172871801857L342.1135994946871,192.21839538468512L344.18273707568056,187.30913077265456L346.2518746566741,170.05314814947064L348.3210122376676,206.44119462827746L350.39014981866114,146.01338354172327L352.45928739965467,166.21799097858934L354.5284249806482,174.66701944881274L356.59756256164167,169.738481915404L358.66670014263525,174.0618717437346L360.7358377236287,172.35741862944252L362.8049753046223,207.80851478872498L364.8741128856158,152.54976729437885L366.9432504666093,142.48280460720437L369.0123880476028,183.29199317157176L371.08152562859635,157.7630374616794L373.1506632095898,213.04718115985298L375.2198007905834,206.896652306286L377.2889383715769,156.4788221382145L379.35807595257046,116.49964671246755L381.42721353356393,206.35205461362906L383.49635111455746,206.65106022243867L385.565488695551,159.37020086885457L387.63462627654445,177.53183458724476L389.70376385753804,154.5506930049565L391.7729014385315,213.41642830726252L393.84203901952503,132.14767298542532L395.91117660051856,102.54933353786846L397.9803141815121,203.90027469997773L400.0494517625056,236.7527092585115L402.11858934349914,172.66798799107906L404.1877269244926,188.83402633828985L406.2568645054862,191.94242917674586L408.32600208647966,236.97247562771207L410.39513966747325,215.30764153625788L412.4642772484667,180.2554618102094L414.53341482946024,249.2595797397683L416.60255241045377,192.41286466793966L418.6716899914473,194.0718997663669L420.74082757244076,80.98330896104558L422.80996515343435,185.7226059110009L424.8791027344278,115.9483090038772L426.9482403154214,219.95901243405285L429.01737789641487,174.41041426703504L431.0865154774084,177.08600235682738L433.1556530584019,160.25600636159032L435.22479063939545,167.9547124698174L437.293928220389,239.0299205568685L439.3630658013825,187.1060932992102L441.432203382376,169.54258092941856L443.50134096336956,146.16675194350162L445.570478544363,169.4564364774072L447.6396161253566,106.86805381267658L449.7087537063501,210.24102178099815L451.7778912873436,172.24277227998735L453.84702886833713,201.98331284802117L455.91616644933066,85.76827974983395L457.9853040303242,160.9097658809331L460.05444161131766,203.62140103418483L462.1235791923112,172.68858248420884L464.1927167733047,120.04132684970028L466.26185435429824,179.71507112096185L468.33099193529176,126.85801597087969L470.4001295162853,152.02904599803495L472.46926709727876,160.85745366576384L474.53840467827234,126.30947558916368L476.6075422592658,168.61825162012238L478.6766798402594,176.9766422943788L480.74581742125287,188.37665238124146L482.8149550022464,141.32825749877168L484.8840925832399,119.53494460686171L486.95323016423345,199.07343211285806L489.0223677452269,49.990336870173905L491.0915053262205,67.59477391187481L493.16064290721397,131.9443271452389L495.22978048820755,135.42420177688638L497.298918069201,192.74587872315823L499.36805565019455,140.32183655750248L501.4371932311881,172.4141140575881L503.5063308121816,69.34501948736134L505.57546839317513,113.11706178793698L507.64460597416866,98.1851291686079L509.7137435551621,139.07209223055963L511.7828811361557,183.63031553999284L513.8520187171492,184.35206992595772L515.9211562981427,158.6068389989087L517.9902938791362,180.89472809267582L520.0594314601298,143.05418615402795L522.1285690411232,135.16466711105923L524.1977066221168,194.66993301018195L526.2668442031103,131.41589668034376L528.3359817841038,119.53701506927264L530.4051193650973,119.06307741293696L532.4742569460908,164.05067938447954L534.5433945270844,227.4642404378392L536.612532108078,160.48565147963444L538.6816696890713,157.14557711311514L540.7508072700649,178.29642992415882L542.8199448510585,123.6223457727403L544.8890824320521,136.8082398199922L546.9582200130454,154.7601401013964L549.027357594039,155.99023706163143L551.0964951750326,186.63255211440003L553.1656327560261,174.13940395316442L555.2347703370195,176.70856146455768L557.3039079180131,202.7050672339861L559.3730454990066,158.10488402143815L561.4421830800002,244.61797745983756L563.5113206609936,238.0068478115286L565.5804582419872,239.72320608468337L567.6495958229807,245.61695354690582L569.7187334039743,261.3715535685358L571.7878709849678,274.64547530754515L573.8570085659612,260.39082618473816L575.9261461469548,251.71661290113244L577.9952837279484,259.5396789111893L580.0644213089417,228.94295808385243L582.1335588899353,243.5962483124451L584.2026964709289,257.98205241850496L586.2718340519224,249.60870595725908L588.3409716329159,245.85711617347346L590.4101092139094,245.52795670253047L592.479246794903,273.67757818283644L594.5483843758965,249.30898449708394L596.61752195689,288.5553593996419L598.6866595378835,288.1955614902566L600.755797118877,271.61358046041147L602.8249346998705,283.17169458116257L604.8940722808641,240.491028259291L606.9632098618575,245.91155391654328L609.0323474428511,255.18594799806056L611.1014850238446,253.97471647458022L613.1706226048382,253.5685313967122L615.2397601858316,202.0257573274448L617.3088977668252,204.70257888420537L619.3780353478187,171.42659159236743L621.4471729288122,170.87906441566102L623.5163105098057,139.1629943408769L625.5854480907993,106.27048311897452L627.6545856717927,129.42413386724414L629.7237232527863,59.639991250570674L631.7928608337799,123.06158085232155L633.8619984147734,124.60936163545617L635.9311359957668,121.3775019692007L638.0002735767604,104.89534365899647L640.069411157754,172.35206626384837L642.1385487387474,114.54488790841394L644.2076863197409,129.49774541381075L646.2768239007345,117.82165898802948L648.345961481728,88.70875487104762L650.4150990627215,138.3905356520406L652.484236643715,81.85702207225374L654.5533742247085,118.60867699232979L656.6225118057021,91.37656771370114L658.6916493866956,116.40273145068026L660.7607869676891,134.69178671212487L662.8299245486826,93.6655740399415L664.8990621296762,108.93488190126963L666.9681997106698,106.27358881259093L669.0373372916631,127.22904724015395L671.1064748726567,101.60487228555554L673.1756124536503,133.29151536266968L675.2447500346436,93.28088652923358L677.3138876156372,167.4391673295008L679.3830251966308,123.41214978564118L681.4521627776244,202.80374459144227L683.5213003586177,238.13583321448908L685.5904379396113,165.66916425632715L687.6595755206049,145.8342665169837L689.7287131015984,182.65314538682674L691.7978506825918,215.50900501881682L693.8669882635854,110.6019785873819L695.9361258445789,170.390633522449L698.0052634255725,165.32163493803628L700.074401006566,113.72002889962486L702.1435385875594,202.13848739786016L704.212676168553,153.8586299310119L706.2818137495466,149.9776802989361L708.35095133054,149.42110035573094L710.4200889115335,130.31148119369013L712.4892264925271,152.94824320369557L714.5583640735207,88.54604736222427L716.627501654514,147.57182500365445L718.6966392355076,159.5614102751217L720.7657768165012,136.84709402949053L722.8349143974947,109.52868611547947L724.9040519784882,84.18790019682545L726.9731895594817,163.91288350317473L729.0423271404753,131.35574313944807L731.1114647214688,187.23725929556093L733.1806023024623,155.14978350617295L735.2497398834558,136.03095739426232L737.3188774644493,84.66426073470578L739.3880150454429,96.97738879717149L741.4571526264364,119.04917888334883L743.5262902074298,95.1231355248305L745.5954277884234,84.76392927097565L747.6645653694169,109.6128922622551L749.7337029504104,134.29690107273342L751.802840531404,93.41002611556515L753.8719781123975,157.27876951948505L755.941115693391,103.13562681928978L758.0102532743845,83.05443215783149L760.079390855378,142.77064293471258L762.1485284363716,53.884722481724744L764.217666017365,127.66637735896904L766.2868035983586,123.13376069615722L768.3559411793522,175.30113160144774L770.4250787603456,72.77335282069471L772.4942163413391,64.57980619626008L774.5633539223327,142.88762406092897L776.6324915033263,153.34586009137374L778.7016290843197,375.4075433700429L780.7707666653132,116.66308108575427L782.8399042463068,139.20482208681648L784.9090418273003,184.91594053999285L786.9781794082938,124.82321397106811L789.0473169892873,169.65599381190552L791.1164545702808,102.9194837593083L793.1855921512744,177.06976905047802L795.254729732268,123.2727680182344L797.3238673132613,145.69136055823915L799.3930048942549,191.54296208861535L801.4621424752485,172.27431379245996L803.531280056242,155.39619055926713L805.6004176372354,141.2353730308269L807.669555218229,111.95859401664106L809.7386927992226,109.59366339326868L811.807830380216,123.23369354677742L813.8769679612095,204.76418615402793L815.9461055422031,140.94238057348727L818.0152431231966,128.36804385430895L820.08438070419,127.59199489554732L822.1535182851836,93.33974052457353L824.2226558661772,50.394671747589605L826.2917934471707,147.49164965072134L828.3609310281641,114.84301246938915L830.4300686091577,140.99202761895737L832.4992061901512,154.93908091656905L834.5683437711448,142.47679145573437L836.6374813521383,131.69439590080702L838.7066189331317,89.06141629297403L840.7757565141253,173.31013970520323L842.8448940951189,169.29980819864141L844.9140316761124,133.27556839686653L846.9831692571058,133.0699098061147L849.0523068380994,137.14134197999425L851.121444419093,97.3211956883619L853.1905820000864,141.1982368646057L855.2597195810799,72.44778361967701L857.3288571620735,68.41822324412877L859.397994743067,109.50978763943097L861.4671323240605,94.99736594646565L863.536269905054,34.538431845160204L865.6054074860476,71.42865356339617L867.6745450670411,133.41528055721122L869.7436826480345,111.02204016864216L871.812820229028,53.936506068193346L873.8819578100215,133.322153801112L875.9510953910151,89.01282650490519L878.0202329720086,160.34741507441242L880.089370553002,57.56237032600585L882.1585081339956,133.1634770861312L884.2276457149892,92.30041244668837L886.2967832959826,75.17920811597635L888.3659208769761,106.70056661935145L890.4350584579697,118.76438017086939L892.5041960389633,92.40585184627375L894.5733336199567,103.61751593233116L896.6424712009502,78.5004721112306L898.7116087819438,153.09599492552945L900.7807463629373,125.57168613261213L902.8498839439308,113.24840399385461L904.9190215249243,101.94854701957075L906.9881591059178,121.74906186717561L909.0572966869114,135.55726202608113L911.1264342679049,123.79474480774232L913.1955718488983,116.80371834632513L915.2647094298919,45.12351673756699L917.3338470108855,67.45041422420346L919.402984591879,24.927036966973517L921.4721221728724,133.83540821705907L923.541259753866,126.84477822716737L925.6103973348596,49.98066737019101L927.679534915853,133.6464895351615L929.7486724968466,43.772870407386044L931.8178100778401,97.64139049758953L933.8869476588336,65.59853978101542L935.9560852398271,84.30338354172333L938.0252228208207,88.7257590942521L940.0943604018142,136.79039860134498L942.1634979828076,153.41856856391007L944.2326355638012,125.20464160478869L946.3017731447948,72.28789546392385L948.3709107257882,45.64873137786647L950.4400483067817,159.75409543651148L952.5091858877753,131.18854228666916L954.5783234687688,129.6883601127896L956.6474610497623,155.710658557571L958.7165986307558,113.76760548268409L960.7857362117493,72.29086900036505L962.8548737927429,119.84978705049521L964.9240113737364,145.40570282412114L966.9931489547299,131.97009779439597L969.0622865357234,116.31647686768956L971.131424116717,127.74267610143067L973.2005616977106,142.59020433822135L975.2696992787039,55.60794191489018L977.3388368596975,18.912431768063158L979.4079744406911,124.28857211894024L981.4771120216845,129.6546600331227L983.546249602678,117.87606369180553L985.6153871836716,118.05260365162941L987.6845247646652,100.55728438422264L989.7536623456587,131.21741862944256L991.8227999266521,81.94565548439739L993.8919375076457,131.92252121133677L995.9610750886392,69.22902953995869L998.0302126696328,127.6911348031165L1000.0993502506262,139.02231302791435L1002.1684878316197,174.46215380111195L1004.2376254126133,84.08684401021635L1006.3067629936069,131.39508192525537L1008.3759005746003,117.41853555138611L1010.4450381555938,103.53090893020673L1012.5141757365874,51.666332139413875L1014.5833133175809,130.54376945523754L1016.6524508985743,86.16682173773826L1018.7215884795679,74.6187515622997L1020.7907260605615,172.07746568005246L1022.8598636415549,34.00055214224077L1024.9290012225485,126.35073065401086L1026.998138803542,80.10466198196458L1029.0672763845355,130.35130455580634L1031.136413965529,90.17180087870591L1033.2055515465224,111.79667945086871L1035.274689127516,120.80532747932611L1037.3438267085096,111.13296409099688L1039.412964289503,93.5707072143693L1041.4821018704965,113.4622563294666L1043.5512394514901,90.16402563156709L1045.6203770324837,91.95398443819056L1047.689514613477,86.03558966279992L1049.7586521944706,115.43505458793013" style="fill: none;" fill="none"></path></g></g></g></g></g></g><g transform="translate(40, 374)" clip-path="url(#clip_1)"><clipPath id="clip_1"><rect width="1072" height="26"></rect></clipPath><g><g><line x1="15.189861697710942" y1="0" x2="15.189861697710942" y2="5" style="visibility: inherit;" fill="rgb(0, 0, 0)" stroke="rgb(204, 204, 204)" stroke-width="1px"></line><line x1="118.64674074738693" y1="0" x2="118.64674074738693" y2="5" style="visibility: inherit;" fill="rgb(0, 0, 0)" stroke="rgb(204, 204, 204)" stroke-width="1px"></line><line x1="222.10361979706292" y1="0" x2="222.10361979706292" y2="5" style="visibility: inherit;" fill="rgb(0, 0, 0)" stroke="rgb(204, 204, 204)" stroke-width="1px"></line><line x1="325.5604988467389" y1="0" x2="325.5604988467389" y2="5" style="visibility: inherit;" fill="rgb(0, 0, 0)" stroke="rgb(204, 204, 204)" stroke-width="1px"></line><line x1="429.01737789641487" y1="0" x2="429.01737789641487" y2="5" style="visibility: inherit;" fill="rgb(0, 0, 0)" stroke="rgb(204, 204, 204)" stroke-width="1px"></line><line x1="532.4742569460908" y1="0" x2="532.4742569460908" y2="5" style="visibility: inherit;" fill="rgb(0, 0, 0)" stroke="rgb(204, 204, 204)" stroke-width="1px"></line><line x1="635.9311359957668" y1="0" x2="635.9311359957668" y2="5" style="visibility: inherit;" fill="rgb(0, 0, 0)" stroke="rgb(204, 204, 204)" stroke-width="1px"></line><line x1="739.3880150454429" y1="0" x2="739.3880150454429" y2="5" style="visibility: inherit;" fill="rgb(0, 0, 0)" stroke="rgb(204, 204, 204)" stroke-width="1px"></line><line x1="842.8448940951189" y1="0" x2="842.8448940951189" y2="5" style="visibility: inherit;" fill="rgb(0, 0, 0)" stroke="rgb(204, 204, 204)" stroke-width="1px"></line><line x1="946.3017731447948" y1="0" x2="946.3017731447948" y2="5" style="visibility: inherit;" fill="rgb(0, 0, 0)" stroke="rgb(204, 204, 204)" stroke-width="1px"></line><line x1="1049.7586521944706" y1="0" x2="1049.7586521944706" y2="5" style="visibility: inherit;" fill="rgb(0, 0, 0)" stroke="rgb(204, 204, 204)" stroke-width="1px"></line></g><g transform="translate(0, 8)"><text x="15.189861697710942" y="0" dx="0em" dy="0.95em" style="text-anchor: middle; visibility: inherit; font-family: Roboto, sans-serif; font-size: 12px; font-weight: 200;" fill="rgb(50, 49, 63)" stroke="none" stroke-width="1px">0</text><text x="118.64674074738693" y="0" dx="0em" dy="0.95em" style="text-anchor: middle; visibility: inherit; font-family: Roboto, sans-serif; font-size: 12px; font-weight: 200;" fill="rgb(50, 49, 63)" stroke="none" stroke-width="1px">500k</text><text x="222.10361979706292" y="0" dx="0em" dy="0.95em" style="text-anchor: middle; visibility: inherit; font-family: Roboto, sans-serif; font-size: 12px; font-weight: 200;" fill="rgb(50, 49, 63)" stroke="none" stroke-width="1px">1M</text><text x="325.5604988467389" y="0" dx="0em" dy="0.95em" style="text-anchor: middle; visibility: inherit; font-family: Roboto, sans-serif; font-size: 12px; font-weight: 200;" fill="rgb(50, 49, 63)" stroke="none" stroke-width="1px">1.5M</text><text x="429.01737789641487" y="0" dx="0em" dy="0.95em" style="text-anchor: middle; visibility: inherit; font-family: Roboto, sans-serif; font-size: 12px; font-weight: 200;" fill="rgb(50, 49, 63)" stroke="none" stroke-width="1px">2M</text><text x="532.4742569460908" y="0" dx="0em" dy="0.95em" style="text-anchor: middle; visibility: inherit; font-family: Roboto, sans-serif; font-size: 12px; font-weight: 200;" fill="rgb(50, 49, 63)" stroke="none" stroke-width="1px">2.5M</text><text x="635.9311359957668" y="0" dx="0em" dy="0.95em" style="text-anchor: middle; visibility: inherit; font-family: Roboto, sans-serif; font-size: 12px; font-weight: 200;" fill="rgb(50, 49, 63)" stroke="none" stroke-width="1px">3M</text><text x="739.3880150454429" y="0" dx="0em" dy="0.95em" style="text-anchor: middle; visibility: inherit; font-family: Roboto, sans-serif; font-size: 12px; font-weight: 200;" fill="rgb(50, 49, 63)" stroke="none" stroke-width="1px">3.5M</text><text x="842.8448940951189" y="0" dx="0em" dy="0.95em" style="text-anchor: middle; visibility: inherit; font-family: Roboto, sans-serif; font-size: 12px; font-weight: 200;" fill="rgb(50, 49, 63)" stroke="none" stroke-width="1px">4M</text><text x="946.3017731447948" y="0" dx="0em" dy="0.95em" style="text-anchor: middle; visibility: inherit; font-family: Roboto, sans-serif; font-size: 12px; font-weight: 200;" fill="rgb(50, 49, 63)" stroke="none" stroke-width="1px">4.5M</text><text x="1049.7586521944706" y="0" dx="0em" dy="0.95em" style="text-anchor: middle; visibility: inherit; font-family: Roboto, sans-serif; font-size: 12px; font-weight: 200;" fill="rgb(50, 49, 63)" stroke="none" stroke-width="1px">5M</text></g><line x1="0" y1="0" x2="1072.2" y2="0" fill="rgb(0, 0, 0)" stroke="rgb(204, 204, 204)" stroke-width="1px"></line></g></g></g></g></svg>